<svg version="1" xmlns="http://www.w3.org/2000/svg" width="1365.333" height="1365.333" viewBox="0 0 1024.000000 1024.000000"><path d="M542 116c-27.9.5-36.8 1-41.6 2.3-6.1 1.6-16.1 3.6-21.9 4.3-1.6.2-5.2.8-8 1.3-2.7.5-6.5 1.2-8.4 1.6-1.9.3-3.7.8-4.1 1-.4.2-2 .6-3.6.9-4.7.9-14.7 3.6-16.9 4.5-1.1.5-6 1.9-11 3.1-10.8 2.6-25.8 8.2-41.5 15.4-6 2.7-23.1 12.7-25.2 14.5-1.2 1.2-2.8 2.1-3.5 2.1-.7 0-1.3.4-1.3 1 0 .5-.5 1-1 1-1 0-7 4.4-14.2 10.3-2.9 2.3-9.4 8.2-18.9 17.3-3.2 3-6 5.4-6.3 5.4-.4 0-2.6 1.9-5 4.2-13.1 13-22.3 21-24.6 21.4-1.7.4-4.1 2.8-7.5 7.7-4.6 6.6-9.7 12.5-21.5 25.2-2.6 2.7-6.4 7.3-8.6 10.1-2.1 2.8-6 7.8-8.6 11.2-2.7 3.3-4.8 6.5-4.8 7.1 0 .5-.8 1.4-1.7 2-1 .5-1.8 1.6-1.8 2.4 0 .8-2.4 4-5.3 7.1-2.9 3.2-5 6-4.8 6.5.3.4-1.1 2.7-3 5-1.9 2.4-3.4 4.7-3.4 5.1 0 .3-.8 1.5-1.9 2.6-3.5 3.8-11.3 18.3-11 20.6.2 1.3-1.8 6.7-4.4 12.1-2.6 5.4-4.7 10.3-4.7 10.9 0 .5-.6 2.2-1.4 3.6-.7 1.5-1.8 3.8-2.3 5.2-.6 1.4-2 4.7-3.1 7.5-2.5 6.1-7.7 27.3-9.1 37.5-.6 4.1-1.3 12.7-1.6 19-.3 6.3-1.1 16-1.6 21.5-.6 5.5-1.3 20.6-1.6 33.5-.5 23.6.1 31.5 3.3 44 .8 3 1.4 7.2 1.4 9.5 0 2.2.9 7.6 2.1 12 1.1 4.4 2.4 10.2 2.9 13 .9 5.7 3.5 15 4.9 18 .5 1.1 3.2 6.8 6 12.7 2.8 5.9 5.1 11.4 5.1 12.1 0 2.6 8 20.8 16.4 37.4 4.7 9.3 8.6 17.3 8.6 17.7 0 .4 2.1 5 4.6 10.2 2.5 5.2 5.2 11.8 6.1 14.7 1.7 5.8 5.5 13.4 8.1 16.3 2.3 2.6 9.2 13.2 9.2 14.2 0 .5 1.3 2.1 3 3.7 1.6 1.6 3 3.3 3 3.8s1.2 2.4 2.8 4.3c7.2 8.8 9.6 12.2 14.1 20.4 1.1 1.9 2.8 4.4 3.8 5.5 1 1.2 4.7 6.3 8.2 11.5 3.6 5.2 6.7 9.7 7 10 .3.3 3.2 4.5 6.4 9.4 8.3 12.5 17.2 21.8 22.2 23.2 2.2.6 10.6 3.4 18.7 6.3 13.1 4.5 20.3 6.3 18.5 4.5-.3-.4-.2-1.4.3-2.4.8-1.4.2-1.9-3.3-3.1-2.3-.7-4.7-1.4-5.2-1.4-.6 0-6.7-2.9-13.5-6.3-12.2-6.2-20.5-11.8-22.4-15.1-.5-.8-1.8-2.3-2.8-3.1-2.5-2.1-6.4-7.7-9.1-13-1.2-2.5-4.2-7.2-6.7-10.5-4.7-6.3-6.1-8.4-8.2-12.5-2.5-4.7-8.6-13.5-10.7-15.4-1.1-1.1-2.1-2.5-2.1-3.2 0-.7-1.4-2.8-3.1-4.6-1.7-1.8-3.7-4.7-4.6-6.3-.8-1.7-2.6-4.1-3.8-5.5-1.3-1.4-3.4-4.6-4.7-7.1-4.2-8.3-7.9-15.1-9-16.3-1.8-2-5.7-9-10.9-19.6-2.8-5.8-5.6-11.2-6-12-1-1.6-3.6-7-8.1-17-1.7-3.6-3.5-7-4.2-7.5-.6-.6-1.8-2.6-2.7-4.5-3.2-6.9-8.2-16.5-9.3-18-.7-.8-1.8-2.9-2.5-4.5-.8-1.7-2.1-4.6-3.1-6.5-5.8-11.6-19.2-69.9-18.9-82 .1-1.9-.6-9.6-1.5-17-2.5-20.3-1.9-47.9 1.4-71 .6-3.6 1.5-9.9 2-14 1.9-13.2 4.4-25.4 4.8-23.9.7 1.9 3.5 3.9 4.6 3.1.5-.3.7.2.3 1.1-.4 1.1.2 1.8 2.2 2.5 4.1 1.5 5.9 0 3.2-2.7-1.1-1.1-2.1-2.6-2.1-3.1 0-1.3-1.7-1.3-2.3 0-.3.6-.4.5-.3-.2.4-1.9 8.2-2.3 8.9-.4.4 1 .1 1.3-.9.9-1.8-.7-1.8.8.1 3.3.9 1.2 1.4 1.4 1.5.6 0-.8.6-1.2 1.3-.9.6.2 2-.5 2.9-1.6 2.3-2.6 2.3-3-.3-2.2-1.6.5-1.9.4-1.4-.5.4-.7.9-3.1 1.1-5.4.3-2.9.1-3.7-.6-2.6s-.9.6-.7-1.7c.1-2 .7-3.3 1.6-3.3 1 0 1-.5-.3-2.5-.9-1.4-1.2-2.5-.6-2.5.5 0 1-.7 1-1.5s.5-1.5 1.1-1.5c.6 0 .9-.9.6-1.9-.5-2.1 1-3.1 4.9-3.1 3 0 3.2-2 .2-2.1-2.2-.1-2.2-.1.2-.9 1.4-.4 1.9-.8 1.2-.9-.7-.1-1-.6-.7-1.1.9-1.4-.8-1.3-2.3.2-.9.9-1.2.8-1.2-.5 0-2 2.2-2.2 5.2-.6 1.9 1 2 .9 1.4-1.6-.4-1.7-.3-2.4.3-2 .6.3 2.1-.3 3.3-1.4 1.2-1.2 2.7-2.1 3.2-2.1.6 0 .6-.4-.2-.8-.9-.6-.7-1.3.7-2.9 1.1-1.1 1.8-2.3 1.5-2.6-.3-.2-.7-1.4-.9-2.6-.3-1.7.3-2.5 2.5-3.5 2.1-.8 2.6-1.5 2-2.6-.5-.8-.6-1.8-.3-2.3.3-.5-.6-.3-1.8.4-5 2.6-5.9 2.9-7.2 2.3-.9-.3-1.6.3-2 1.5-.3 1.1-1.7 2.3-3.1 2.7-2 .5-3.4-.1-6.1-2.5-2-1.7-4-3.1-4.5-3.1s-.7-.7-.4-1.5c.5-1.1 1.1-1.2 2.4-.5 2.6 1.4 3 1.3 3-.9 0-2 2.5-3.5 4.1-2.5.5.3 2.3.3 3.9-.1 2.1-.5 3-1.3 3-2.6 0-1 .7-1.9 1.5-1.9 1.8 0 1.8.1.5 3.4-.5 1.4-.6 2.7-.2 3 1.5.9 7-2.6 7.6-4.9.6-2.3 1.9-2.7 4.4-1.2.8.6 1.7-.2 2.7-2.5.8-1.8 1.4-2.7 1.5-1.9 0 1 .4 1.1 1.3.3 1.2-1 1.8-1.2 3.6-1.2.5 0 1.5-1.6 2.2-3.4.7-1.9 1.6-3.3 2.1-3 .4.3 1-.7 1.4-2.1.5-1.9 1.1-2.4 2.5-2 2.3.8 5.9-1.1 5.9-3 0-.8.6-1.5 1.3-1.5 2.2 0 4 1.8 3.4 3.3-.6 1.6.6 3 3.6 4 1.3.5 1.7.2 1.5-1.1-.2-1.1.3-1.6 1.5-1.4 1.3.2 1.7-.4 1.7-2.8 0-1.6-.4-3-1-3-1 0-3.3-2-5.9-5.3-1.3-1.6-1.2-1.7 1.3-.8 1.4.6 2.6.7 2.7.3 0-.4.4.3.9 1.5.7 1.7 1.6 2.1 3.9 1.8 2.4-.3 3 .1 3.5 2.1.7 2.7 1.8 3 3.8 1 1.7-1.6 4.8-.3 4.8 2 0 2 3 3 4.1 1.3.5-.8.9-2.8.9-4.6 0-4.1 4-5.7 9.7-4.1 3.8 1.1 3.8 1.2 1 1.7-1.5.4-3.6 1.9-4.7 3.6-1.1 1.6-2 2.6-2 2.2 0-.4-.9-.3-2 .3s-2 1.7-2 2.5-.6 1.5-1.4 1.5c-3.1 0-7 3-8 6.2-1 2.9-1.6 3.3-4.6 3.4-4.3.1-8 1.9-8 3.9 0 .7-.5 1.5-1.1 1.7-.5.2-.7 1.1-.3 2.1.9 2.5 7 1.2 10.1-2.2 1.9-1.9 2.6-2.2 3.2-1.2.6.9 1 1 1.5.2.4-.6 1.2-.9 1.7-.6.9.6 1.3-.8 1-3.3-.1-.6.3-1.2.9-1.2.5 0 1-.9 1-2 0-1.5.7-2 2.9-2 1.6 0 3.1-.6 3.4-1.4.4-.9 1.7-1.2 4-1 3 .4 3.7.1 4.3-1.8.4-1.3.2-2.4-.5-2.6-.6-.2-1.1-.8-1.1-1.3 0-.4.7-.6 1.4-.3.8.3 2.5-.3 3.7-1.5 1.2-1.1 2.6-1.8 3.1-1.5.4.3.8.1.8-.4 0-.6.9-.8 2-.5 1.1.3 2 .1 2-.4 0-.6.9-2 1.9-3.2 1.7-1.9 2.2-2.1 4.1-.9 1.8 1.1 2.2 1.1 3-.3.6-1.1 1.8-1.5 3.5-1.1 2.8.5 3.1-.4 1.1-3.4-1-1.3-1.1-2.5-.5-3.5.5-.8.9-2.3.9-3.5 0-1.7.5-2 3-1.6 2.5.4 3 .1 3-1.6 0-1.7.8-2.2 3.8-2.7 5.7-1 6.1-1.2 5.5-3.4-.3-1.2-.1-2.1.6-2.1s.9-.9.5-2.5c-.5-2.2-.3-2.4 2-1.9 2.4.4 2.6.2 2.6-3s.2-3.4 2.9-3c2.4.4 3 .1 3.9-2.4.5-1.6.6-3.5.1-4.4-.7-1.2-.4-1.4 1.5-1.1 1.9.4 2.6-.2 3.7-2.6.8-1.7 1.9-3.1 2.5-3.1.7 0 1.5-.7 1.8-1.6.5-1.4.9-1.2 2.5.7 2 2.4 2 2.4 3.5.4.8-1.1 1.6-2.8 1.6-3.8 0-.9.7-1.7 1.5-1.7s1.5-.6 1.5-1.3c0-.9.3-.8.9.2.6.9 1.8 1.1 4.1.6 2.7-.6 3.1-.4 2.9 1.2-.2 1 0 2.4.4 3 .5.7.4 1.3-.2 1.3-.5 0-1.6 1.2-2.3 2.7-.9 1.9-2.3 3-4.3 3.3-2.2.4-3 1.1-3 2.5 0 1.1.7 2 1.5 2 2 0 2.5 3.9.6 5.4-1.1 1-1.8.8-3.3-.8-1.6-1.7-2-1.8-3.7-.5-1.1.8-1.5 1.4-.8 1.4.9 0 .9.6 0 2.5-.8 1.9-1.4 2.2-2.4 1.4-2.1-1.7-5.9-.7-5.9 1.6 0 1.1-.9 2.5-2 3-3.4 1.8-2.5 4 1.5 3.7 1.9-.2 3.6-.7 3.8-1.2.6-1.5 4.2.2 4.2 2 0 4.5 2.9 5.9 5.3 2.6.5-.8 1-.7 1.6.3.6.9 1.1 1 1.5.2.4-.6 1.2-.9 1.7-.6.8.6 1.3-.8 1-2.7 0-.4.6-.5 1.4-.2 1.1.5 1.5-.2 1.5-2.6 0-1.7.4-2.9.9-2.6.5.3 1.4-.8 2-2.4 1.1-3.2 2.1-3.6 5.3-1.9 2.9 1.6 3.7 0 .9-2.2-1.3-1-1.8-1.9-1.2-1.9.7 0 2.2-1.1 3.5-2.5 1.3-1.4 3.1-2.5 4-2.5.9 0 1.6-.7 1.6-1.6 0-2.3 3.2-4.5 4.7-3.3.7.7 1.4.6 1.9-.2.4-.7-.1-1.9-1.3-2.8-1.1-.9-1.8-2.2-1.5-2.9.3-.9.8-1 1.7-.2 1.9 1.6 4.8.1 4.2-2.2-.4-1.3-.1-1.8 1.1-1.6 2.9.5 4.4 3.8 1.7 3.8-1.8 0-4.9 5.6-4.1 7.6.6 1.6 3.6 1.9 3.6.3 0-.5.4-.7 1-.4.9.6 1.6-1.5 2.2-6.5.2-1.4.9-2.4 1.6-2.2.6.1 1.2-.2 1.2-.8 0-.5.7-1 1.5-1s1.5-.7 1.5-1.6c0-1.3-.3-1.4-1.4-.5-1.1.9-1.5.8-2-.4-.3-.9-.2-1.4.3-1 1.5.8 3.9-.5 4.4-2.5.7-2.8 8.2-2.3 8.2.5 0 1.2-.6 1.9-1.4 1.7-1.8-.4-5.2 2.8-5 4.7.2 2.8-.2 5.6-.8 4.3-.7-1.7-4.2-1.5-4.9.3-.7 1.9 2 5.8 4.4 6.1 1.2.2 2.2-.6 2.9-2.7.7-1.7 1.7-2.8 2.2-2.4.6.3 1.1.3 1.2-.2.4-4.3.7-5.4 1.2-6 .4-.3.7-.1.7.6s.5.9 1.2.5 2.4-.9 3.7-1c1.4-.2 2.7-.8 2.9-1.4.6-1.8 2-1.1 1.5.9-.7 2.9 1.5 9.8 4.2 12.7 1.4 1.5 2.5 3.1 2.5 3.7 0 .5.6.5 1.3-.2.8-.6 1.7-.8 2-.4.4.3.7.1.7-.5 0-.7 1.1-.9 3-.6 2.5.5 3 .3 3-1.2.1-1.8.1-1.8 1.4-.1.9 1.2 1.6 1.4 2.1.8.3-.6 1.8-1.1 3.2-1.1 2 0 2.4-.3 1.7-1.8-.4-.9-.7-3.1-.7-4.7 0-1.8-1.2-4.9-3-7.5-2.7-4-2.7-4.2-.6-2.4 3.2 2.9 6.5 3.8 7.6 2.2 1.7-2.9 12.1-9 15.1-9 1.2 0 2.2-.7 2.2-1.5s.4-1.2.9-.8c.5.3 1.2.1 1.6-.5.4-.6 1.1-.8 1.6-.5.9.6 1.2-.6 1-4-.1-1.8-.1-1.9.9-.3.6 1 1.7 1.8 2.5 1.8 1.4 0 3-3.4 2.1-4.8-.6-1.1 1.1-3.8 1.9-3 .4.3.7 2.1.8 4 .2 2 .7 3.2 1.5 3.1.6-.2 1.8 1.2 2.5 3 1.6 3.7 4.2 6.1 5.6 5.2.7-.3.8 0 .5 1-.5 1.2-.9 1.3-2.1.4-1.1-1-1.8-.9-3.1.5-1.6 1.6-1.6 1.8.8 3.6 1.3 1 2.8 1.6 3.3 1.3.5-.3.2.9-.7 2.5-1.1 2.2-1.3 3.3-.5 3.8.8.4.7.9-.2 1.5-1.1.6-1.1 1.1-.2 2 1 1 1.6.8 3-.8 1-1.1 2.4-1.8 3.1-1.6.6.3 1.2 0 1.2-.5 0-.6.9-1.3 1.9-1.7 1.1-.3 2.3-1.6 2.7-2.7.6-1.9.7-1.9 1.6-.5 1.2 2.2 3.4 2.2 4.2.1.6-1.5.8-1.5 3.2.1 1.4.9 3.5 1.5 4.6 1.3 1.9-.3 1.6-.7-2-3.1-4.4-3.1-4.7-5.7-.6-4.9 1.3.2 2.7.8 3 1.3.3.5 1.8.9 3.4.9 3.1 0 8.1 1.8 9.2 3.4.4.6 1.2.5 2.2-.3 1.2-1 2-.8 4.5 1 1.7 1.3 3.1 2.7 3.1 3.2s.6.4 1.3-.2c.8-.6 1.7-.8 2-.4.7.6 1.1-1.1.8-3.5-.2-1.3 1.1-1.6 2.3-.5.3.4 1.6.8 2.7 1 1.8.3 2.1-.1 1.7-2.6-.3-2 .1-3.2 1.4-4 2.4-1.5 3.5.8 1.8 3.9-.6 1.2-.9 2.8-.6 3.5.3.8.1 1.7-.3 2-.5.2-1.2 2-1.5 3.9-.5 2.6-1.2 3.6-2.9 3.8-1.8.2-2.2 1-2.3 4.1-.1 4.4.7 5.2 3.8 3.5 1.3-.7 2.7-1.1 3.2-1 .5.2 1.2-.2 1.6-.9.5-.7 1-.8 1.4-.1.3.6-.8 1.5-2.4 2.1-1.7.5-3 1.4-3 1.9 0 1.7 2.9 3.4 4.2 2.6 1-.6 1-.4.2.7-1.5 2-1.2 4.4.6 4.4 2 .1 5-4.9 5-8.1 0-1.5.4-2.3 1.1-1.9.6.4.8 1.3.5 2.1-.3.8-.1 1.4.3 1.4.5 0 .7 1 .3 2.2-.5 2-.3 2.1 1 1.1.8-.7 1.7-1 2.1-.7.3.3.8-.4 1.2-1.5.6-2 .8-2 2.8-.6 1.2.8 2.6 1.5 3.2 1.5.5 0 .4-.4-.4-.9-1-.6-1.2-1.9-.7-4.5.8-3.9 2.1-4.7 3.1-1.7.7 2.2 3.2 3.5 4 2 .4-.5 1.1-.7 1.6-.4.9.6 1.3-.8 1-3.3-.3-1.6 4.2-.6 4.8 1.1.6 1.7 5.4 5.8 7.7 6.7 1.1.4 3.5.7 5.4.5 2.7-.2 3.6-.8 4-2.6.4-1.6 1.3-2.4 2.7-2.4 1.2 0 2.5-.4 2.9-.8 1.4-1.4 2.2-.7 2.7 2.5.2 1.8 0 3.9-.5 4.5-.6.7-.8 1.9-.5 2.7.8 2.1-1.5 2.6-3.5.8-1.5-1.2-2-1.3-3.3-.2-.9.7-1.4 1.9-1.1 2.7.3.7.1 1.3-.3 1.3-.5 0-1.6.3-2.5.6-1.1.4-1.6 0-1.6-1.4 0-2.7-1.7-3.7-3.5-2.2s-2 6-.4 6c.7 0 1.7.7 2.3 1.6.8 1.1 2 1.3 3.9.9 1.5-.4 2.7-1.1 2.7-1.6 0-.4 1-.6 2.2-.4 1.2.3 2.5 0 2.8-.6.9-1.4 3.8 0 4.5 2.2.5 1.6 1 1.8 2 .9 1.2-1 1.3-.5.8 2.7-.3 2.1-1 4.3-1.5 5-.5.7-.7 2.6-.3 4.3.4 1.7.2 3.6-.3 4.3-.6.7-1.2 2.3-1.4 3.7-.3 2.3 0 2.5 3 2.2 1.7-.2 3.2-.1 3.2.2 0 .3-1.9 1.6-4.2 3-2.4 1.4-3.8 2.6-3.3 2.6.6 0 .4.4-.3.8-.7.5-1 1.6-.6 2.5.5 1.5.8 1.5 3.1 0 2-1.3 2.9-1.4 4.4-.5 2.9 1.8 3.7 1.5 5-2.2 1.1-3 1.5-3.3 3.5-2.5 1.4.5 2.6.4 2.9-.1.3-.5 1.2-.7 1.9-.4.8.3 1.7.1 2.1-.5.3-.6 1.5-1.1 2.6-1.1 1.2 0 1.9-.7 1.9-1.9 0-1.1.5-2.3 1-2.6.6-.3 1-.1 1 .5 0 .7.7.9 1.6.6 1.4-.6 1.6-.1 1 3.5-.8 5-1.3 5.9-3.2 5.9-.8 0-1.4.7-1.4 1.5 0 .9.9 1.5 2.4 1.5 1.4 0 3.2.8 4.2 1.7 1.6 1.6 1.5 1.8-1 2.6-3 1-3.2 1.9-1.1 3.7 2.3 1.9 1.9 5.7-.6 6.3-1.7.5-2 1.1-1.5 3.1.3 1.4.2 2.6-.3 2.6-1.3 0-2.1 2.7-1.5 4.5.7 1.7 4.4 2.1 4.4.5 0-.6.6-1 1.4-1 .8 0 1.7-.7 2-1.6.3-.9 1.2-1.4 2-1.1.7.3 1.8.1 2.3-.4.5-.5 1.7-.4 2.9.5 2 1.6 2.2 1.4-3 3-1.4.4-2.5 5.3-1.8 7.4.2.7 1.2 1.2 2.3 1.2 1.2 0 1.9.7 1.9 1.8 0 1 1.4 2.6 3 3.5 3.1 1.9 5.2 5.2 6.4 9.9.5 2.3.3 2.8-1.2 2.8-2.9 0-3.3 1-1.6 4.1 1.5 3 1.9 3 8.5 1.3 2-.6 4.3 2.1 3.5 4.1-.3.8-1.2 1.5-2.1 1.5-1.7 0-2.1 2.5-.5 3.5.5.3 1.8.2 2.7-.3 1.3-.8 2.5-.1 5.5 3.1 2 2.3 3.7 4.8 3.8 5.4 0 .7.5 1.3 1 1.3.6 0 1 .9 1 2.1 0 3 2.4 1.8 2.8-1.4.4-3.3.5-3.3 3.6-.3 2.9 2.6 3.4 4.6 1.2 4.6-.8 0-2.1.9-2.9 2-1.3 1.9-4.9 2.8-7.2 1.9-.5-.2-1.1 0-1.3.6-.1.5.6 1.1 1.8 1.3 1.1.2 2.5 1.2 3 2.3 1.4 2.5 3 2.5 3 0 0-2.8 1.7-3.5 2.9-1.3.7 1.3.7 2.2-.1 3-.7.7-.7 2 .1 4.3 1.6 4.5.1 6-4.6 4.7-4.1-1.1-5.3-.1-5.3 4.4 0 4.4-1.7 7.8-4 7.8-2 0-3.1.6-7 4.2-1.5 1.3-3 1.5-7.4 1.1-3.1-.3-5.6-.3-5.6.1 0 .3 1.1 2.4 2.5 4.6 1.9 2.9 3.3 4.1 6 4.6 3.2.6 3.5.9 3.5 4 0 1.8-.7 5.2-1.6 7.4-1.5 3.7-1.5 4.3.2 7.8 2.8 6 1.8 16.2-1.6 16.2-2.5 0-1.6 2.4 1.3 3.8 2.2 1 2.2 1-.4 2-1.5.6-2.9 1.7-3.2 2.6-.4.9-1.3 1.3-2.2 1-.8-.3-1.5-.2-1.5.4 0 .5.7 1.2 1.5 1.6 2.4.9 1.7 3.6-1.2 4.7-3.3 1.2-5.3-.7-4.5-4.6.6-3.6-1.6-3.2-6.2 1-3.4 3.1-4.3 3.4-7.8 3-2.2-.3-4.4-.3-4.8 0-1.3.8 2.1 6.7 4.1 7.2 1.1.3 1.9.9 1.9 1.4 0 .5.9.9 2 .9 1.6 0 2 .7 2 3.4 0 3.9-.3 4.3-4.5 4.7-2.8.4-3 .2-3.1-3.1-.1-4.1-1.9-5.8-1.9-1.8-.1 3.6-1.5 5-5.7 5.3-3.3.2-4.9 3-1.7 3 2.9 0 4.8 2.5 5.5 7.1.3 2.4.7 4.4.9 4.4 1.1 0 6.5-3.4 6.5-4.1 0-.5.7-.9 1.5-.9s1.5.6 1.5 1.4c0 .8 1 2.2 2.2 3 1.2.9 2.7 3 3.3 4.8.6 1.8 1.7 3.2 2.3 3 .7-.1 1.5.5 1.8 1.3.7 1.7 3.4 2.1 3.4.5 0-.6.5-1 1-1 .6 0 1 .7 1 1.5 0 1.4-1.2 1.9-3.2 1.6-.5 0-.8.5-.8 1.2 0 .6-1.1 2.2-2.4 3.4-2 1.9-3 2.2-7.5 1.6-2.8-.3-5.1-.4-5.1-.1 0 1.1 3.2 6.8 4.1 7.3 1.4.9 1.1 2.5-.5 2.5-.7 0-3.5 1.9-6.1 4.2-4.7 4.2-9.1 11.9-8.1 14.5.7 1.8 3.5 1.6 4.2-.2 1.1-2.8 3.3.4 3.2 4.5 0 3.1.6 4.6 3.1 7l3.1 3.1 2.2-2c1.2-1.2 2.7-2.1 3.4-2.1 2.1 0 3.6 2.8 2.8 5.2-.6 2-.5 2.1.9.9.9-.7 1.5-1.7 1.2-2.1-.3-.5.4-.6 1.5-.3s2 1.4 2 2.4c0 1.6.8 1.9 4.9 1.9 3.3 0 5.1.5 5.4 1.5.6 1.3 8 5.5 9.9 5.5.4 0 1.8-1.1 3-2.5s2.8-2.5 3.5-2.5c.7 0 1.3-.7 1.3-1.5s.5-1.5 1.1-1.5c.5 0 .7.4.4 1-.3.5 0 .7.8.4.8-.3 1.8-.1 2.2.5.3.6 1.5 1.1 2.5 1.1s3.8 1 6.2 2.2c3.3 1.7 4.3 2.8 4 4.3-.3 1.7-.1 1.7.8.5.9-1.3 1.2-1.3 2 .1.5.9 2.2 2 3.7 2.4 1.5.3 4 1.7 5.6 3.1 3.4 2.8 4.5 3 5.4.7.6-1.5-1.6-4-5.4-6.1-.7-.4-1.4-2.3-1.6-4.2-.2-2.6-.7-3.5-2.2-3.6-5.9-.3-6.4-.4-5.9-1.9.4-.8 1.2-1.5 2-1.5s1.4-.6 1.4-1.4c0-2.3 2.2-3.1 3.5-1.3 1.6 2.2 6.8 2.2 8.8-.1 1.7-1.9 1.3-6.5-.9-8.3-.8-.6-1.4-1.6-1.4-2.1 0-.6.7-.5 1.5.2s1.5 1 1.5.7c0-.3 1.4.8 3.1 2.5 2.3 2.3 3.3 2.8 4.2 1.9.6-.6 2.2-1.1 3.4-1.1 2 0 2.2-.3 1.3-1.9-.8-1.6-.4-2.2 2.4-3.9 1.8-1.1 4.3-2.3 5.5-2.7 1.1-.3 2.1-1 2.1-1.5 0-1.7-1.9-2-4.4-.9-2.8 1.3-5 .4-2.6-1.1.8-.5 1.1-1.2.8-1.6-.4-.4-.1-1.5.6-2.6 1.6-2.2.9-6.8-1-6.8-1.6 0-2.9-4.3-2-6.6.4-1 1.3-1.3 2.5-.9 2.3.7 3.7-1.1 2.3-2.8-1.6-1.9-2.5-7.7-1.3-7.7.6 0 1.1.4 1.1 1 0 1.9 1.9 1 3.7-1.6 1.6-2.5 1.6-2.7-.2-4-1-.8-3.4-1.4-5.2-1.4-2.3 0-3.3-.5-3.3-1.5 0-.8.8-1.5 1.8-1.5 1.1 0 .6-.7-1.5-2-4.4-2.6-4.2-4 .6-4 2.3 0 4.1-.5 4.3-1.3.6-1.6 5.8-1.7 5.8 0 0 1.6 1.2 1.7 2.8.1 1.8-1.8 1.4-4.6-.9-6.9-1.5-1.5-1.8-2.4-1-3.2 1.7-1.7 1.4-5.7-.4-5.7-.9 0-1.8-.7-2.1-1.5-.4-.8-1.3-1.5-2-1.5-.8 0-1.7-.7-2-1.5-.4-.8-1.1-1.5-1.8-1.5-.6 0-1.7-.4-2.4-.9-1.1-.7-1.2-1.2-.1-2.9 1-1.7 1-2.3 0-3.6-.8-.9-.9-1.6-.3-1.6.5 0 1.5-1.4 2.2-3.1 1.6-3.7.6-5-4.6-5.8-3.7-.6-6.1-3.1-2.9-3.1.9 0 1.3-.5 1-1-.3-.6.4-1 1.8-1 2.7 0 6.2-3.3 5.2-4.9-.3-.6-.2-1.1.3-1.1.6 0 1.5 1.3 2.1 3 .5 1.6 1.5 3 2.2 3 .6 0 .9.8.6 2-.5 2.1 1.6 4.6 3.1 3.6.5-.3.9-2.4.9-4.7 0-3.4-.4-4.2-2.6-5.1l-2.6-1 3.2-1.4c3-1.3 3.4-1.2 5.9 1.1 1.5 1.4 3 2.2 3.5 1.9.5-.2 1.7.4 2.8 1.5 2.2 2.2 3.1 1.8 3.1-1.7 0-1.7-.4-2.3-1.5-1.8-.9.3-1.5-.1-1.5-1.1 0-1.3-.3-1.3-1.5-.3-1.3 1.1-1.5.7-1.5-2.3 0-7.1-4.2-11.1-7.8-7.5-.8.8-1.5.8-2.7-.2-1.5-1.2-1.5-1.4-.1-2.2.9-.5 2.1-.6 2.6-.3 1 .6 1.4-.1 2.4-4.8.5-2.2.3-2.7-1.4-2.7-1.1 0-2-.5-2-1 0-.6.5-1 1-1 2.5 0 .6-1.7-2.7-2.6-3.8-.9-5.1-2.9-3.9-6.1.6-1.4.9-1.4 2.9.4 1.2 1.1 3 1.8 4 1.6 2-.5 2.3-2.9.5-3.6-.7-.3-.1-.6 1.5-.6 2.1-.1 2.7-.6 2.7-2.4 0-2-.5-2.3-5-2.4-4-.2-5 .1-5 1.4 0 1.2-.3 1.3-1.4.4-1-.8-1.3-2.3-.9-4.7.4-2.1.1-4-.8-5-.8-.9-1.4-2.9-1.5-4.3-.3-4.6-2.2-8.1-3.9-7.5-1.1.5-1.8 0-2.2-1.4-.3-1.3-1-1.9-1.9-1.5-1.8.7-1.8-2.1 0-3.6 1.6-1.4 2.8-5.1 1.6-5.1-.9 0-2.3 1.8-2.6 3.2-.1.5-.2 1.1-.3 1.5-.1.6-3.1-4.4-3.1-5.1 0-.1 1.6-.8 3.5-1.6s3.5-1.8 3.5-2.2c0-.5.5-.6 1.2-.2.8.5.9 0 .5-1.5-.3-1.5-.1-2.1.6-1.8.7.2 1.1 1.3.9 2.3-.2 1.7-.1 1.7 1 .3 1.7-2 4.8-3.2 4.8-1.7 0 .7.6.6 1.6-.2 1.3-1.1 1.6-1 2 .7.4 1.5 1.2 1.8 3.5 1.5 1.6-.2 2.9-.8 2.9-1.3 0-.4 1-1.3 2.1-2 1.7-.9 2.3-.8 3 .2.7 1.1 1.1.9 1.5-.9.4-1.3 1.2-2.1 1.9-1.8.7.2 1.6-.5 1.9-1.7.5-1.8.8-2 1.6-.7.5.8.7 2.3.4 3.2-.4 1.3.2 2.1 1.8 2.7 2.8 1 5.4 3.9 4.4 4.8-.3.3.1 1.4.9 2.3 1.2 1.3 1.3 2.4.6 4.2-1.5 3.9-.6 4.5 9.2 6.5 1.5.3 3.4 1.4 4.1 2.5.9 1.2 1.6 1.6 2.1.9.3-.6 1.2-.8 1.8-.4.7.4 2 .9 3.1 1 1.5.3 1.8-.2 1.4-2.7-.3-1.6-.1-3 .4-3 .4 0 .8-1 .8-2.3 0-1.8.2-1.9 1-.7.5.8 1.5 1.5 2.1 1.5 1.2 0 2.3 1.6 3.3 4.7.8 2.6 2.6 2.2 2.6-.6 0-2.6 2.6-4.2 4.4-2.7.6.5 1.6 1 2.1 1.1.6 0 .9 1.2.8 2.6-.2 3.2 2 3.1 5.2-.1 1.4-1.3 2.5-1.9 2.5-1.3 0 .7.4.7 1.3-.1.8-.6 1.7-.8 2.1-.4.3.4 1.5.8 2.6 1 1.5.2 2-.3 2.1-2 .4-6.4 1.7 8.7 1.8 20.7.1 7.6.3 14.2.6 14.6.3.4-.1 1.3-.9 1.9-1.1.9-1.8.6-3.2-1.4-1.8-2.4-2-2.5-4.2-.9-1.3.9-2.1 2.2-1.8 3 .8 2-.7 2.4-2.9.8-1.6-1.2-1.7-1.6-.6-2.3 1.5-.9.8-4.1-.8-4.1-.5 0-1.6.9-2.4 2-.8 1.1-1.7 1.7-2 1.3-.4-.3-2.3-.7-4.3-.8-2.3-.1-4.2-.8-5-2-1.4-1.8-1.5-1.8-3.2-.2-1.5 1.5-1.5 1.9-.2 2.7.8.5 1.7.7 2.1.4.4-.2 1 .5 1.4 1.6.6 1.8 1.7 2.5 2.9 1.7.2-.1 1.2.5 2.2 1.4 1.1.8 2.9 1.4 4.2 1.3 1.2 0 3.3.9 4.7 2.2 1.3 1.2 2.7 1.8 3.1 1.3.3-.5 1-.7 1.5-.4.9.6 1.3-.7 1-3.2-.3-2.3 1.7-2.2 2.3.2.5 1.8 1.1 2.3 2.4 1.8.9-.4 2-1.1 2.5-1.7 1.5-2.2 2.5 1.8 2.3 9.5-.1 8-.8 10.1-2.8 8.1-.7-.7-1.7-.8-2.8-.2-3.3 1.8-3.6 9.6-.4 8.3 2.9-1.1 4.4 1.7 4.4 8.3 0 3.4-.5 6.6-1 6.9-.7.4-.8-.3-.4-2.1.6-2.5.5-2.6-1.9-2.2-1.9.4-2.7 0-3-1.4-.3-1.1-1.5-2.2-2.7-2.5-1.3-.4-2.3-1.6-2.7-3.4-.3-1.6-1.2-2.9-1.9-2.9-.8 0-1.4-1-1.4-2.5 0-1.8.5-2.5 1.9-2.5 2.1 0 3.1-1.9 3.1-5.6 0-1.9-.5-2.4-2.5-2.4-2.1 0-2.5-.5-2.5-3 0-2.3-.4-3-2-3-1.1 0-2.3.6-2.6 1.3-.3.8-1.6 1.2-3.3.9-2.2-.3-2.9.1-3.4 1.8-.4 1.6-.1 2.4 1.4 2.7 1.3.4 1.9 1.4 1.9 3.4 0 1.8.5 2.9 1.4 2.9.8 0 1.7.7 2 1.6.3.8.2 1.2-.4.9-.6-.3-1-.2-1 .3s-1.1.7-2.5.4c-1.4-.2-2.2-.9-1.8-1.5.4-.6-.4-.8-2.1-.5-2 .4-2.6.2-2.2-.8.3-.8 0-1.3-.7-1.1-.7.1-1.1-.7-1-2.1.2-1.2-.1-2.2-.5-2.2-1.2.1-4.2 2.7-3.6 3.2.3.3-1.1.9-3.1 1.2-3 .6-3.6 1.1-3.3 2.9.2 1.8.9 2.2 3.8 2.1 1.9 0 4.4-.2 5.5-.5 1.3-.2 1.9.1 1.7.9-.1.8.2 1.1.8.7.5-.3 1-.1 1 .5s.5.8 1 .5c1.2-.8 3.2 3.9 2.4 5.9-.3.8-.1 1.7.5 2.1.6.3 1.1.1 1.1-.4 0-1.9 1.8-1.2 2.5.8.7 2.3 3.5 1.8 3.5-.6 0-.8.5-1.3 1.1-1.1 1.5.5 3.9 7.7 2.8 8.4-1.5.9-1 3.4.7 4.1.9.3 2.1-.3 3.1-1.7l1.6-2.3.9 2.3c.6 1.6 1.4 2.1 2.7 1.7 2.3-.6 3.5 1.5 1.8 3.2-.8.8-.9 1.6-.1 2.9 1.3 2 .6 7.3-2.1 16.2-1.7 5.4-2.8 10.6-5.9 26.5-1.9 10.1-2.8 12.9-5.5 18.5-1.3 2.5-3.1 7-4.1 10-2.8 8-4.4 12.4-5.2 13.6-.4.6-1.4 3.3-2.3 6-1 2.7-2.9 7.6-4.5 10.9-1.5 3.3-3.5 8-4.5 10.5-1.6 4.3-2.4 6-7.9 18.1-1.4 3.1-2.6 6.5-2.6 7.5 0 1.7-2.1 5.9-7.1 14.4-.7 1.3-4.5 6.7-8.4 11.8-3.8 5.1-8.1 11.3-9.5 13.6-5.1 8.7-17.1 21.9-24.2 26.6-2.1 1.4-4.3 3.8-4.9 5.3-1.1 2.5-11.8 11.7-13.8 11.7-.4 0-1.6.9-2.6 2s-2.2 2-2.7 2-1.9.9-3.1 2.1c-4 3.7-13.1 9.4-19.6 12.1-3.5 1.5-7.1 3.3-8 4.1-.9.8-6.3 2.6-12.1 4.1-5.8 1.6-10.9 3.2-11.5 3.6-.5.4-2.9 1.3-5.3 2-2.4.6-8.9 3.3-14.5 6-8.6 4-16 7.3-32.4 14.1-4.5 1.8-6.9 2.7-12.8 4.9-3.3 1.2-7.3 2.8-9 3.5-1.6.7-4.6 1.8-6.5 2.4-9 2.8-59.6 20.4-67.5 23.4-4.6 1.7-17.4 7.2-25.5 10.9-3 1.4-7.4 2.9-9.7 3.2-2.2.4-4.9 1.3-5.9 2.1-1.6 1.1-2.6 1-6.5-.4-3.9-1.5-5.6-1.6-10.3-.8-4.3.8-5.9.8-6.5-.1-.8-1.3-4-1.4-20.4-.8-11.5.4-17.1-.8-27-5.4-2.5-1.2-5-1.9-5.5-1.6-1 .6-6.6-.4-13.7-2.4-4.2-1.2-9-2.4-13.9-3.6-1.9-.5-3.1-.2-3.7.7-1.4 2.2-1 3.9.9 3.9 1.7 0 15.1 3.3 26.7 6.5 3.3 1 9.4 2.1 13.5 2.6s8.4 1.3 9.5 1.8c1.1.5 2.9 1.2 4 1.6 1.6.5 1.7.8.5 1.5-1.2.8-1.2 1-.1 1 .8 0 2-.8 2.7-1.7 1.3-1.7 1.4-1.7 2 .4.3 1.3 1.4 2.3 2.3 2.3.9 0 2.6.3 3.9.6 1.6.5 2.2.2 2.2-1 0-2.3 3.1-2 3.7.4.6 2.2 4.2 2.7 6.1.8.9-.9 1.3-.7 1.8.6.4 1 .2 2.1-.5 2.5-.8.6-.9 1.5-.2 3.4.7 1.7.7 2.8.1 3.2-.7.4-.6 1.3 0 2.6.9 1.6.7 1.9-.8 1.9-1.1 0-2.4.6-3 1.3-.6.7-2.7 1.9-4.7 2.7-2.1.8-3.5 2.1-3.5 3.1 0 .9-.7 2.2-1.6 3-.8.7-2.2 2.6-3 4.2-.9 1.6-2.1 2.6-2.8 2.4-1.9-.8-3.4.5-4.2 3.7-.6 2.6-.5 2.8 1.7 2 1.3-.4 4.4-.9 6.9-1 9.7-.3 9.3-.2 8.7-2.7-1-3.8.5-5 3.9-3.2 1.6.8 3.7 1.5 4.7 1.5.9 0 1.7.4 1.7 1 0 .5-.7 1-1.5 1-2.4 0-1.7 1.8 1.3 3.4 3.3 1.7 6 .3 5.4-2.8-.3-1.4 0-1.7 1.1-1.3 3.8 1.4 8.7 1.9 8.7.8 0-.6-1.4-1.4-3.1-1.8-1.7-.3-3.7-1.6-4.5-2.8-1.4-2.1-1.3-2.7.7-6.9 1.1-2.5 2.4-4.6 2.8-4.6.4 0 .7-1 .7-2.2-.1-3 3.3-3.7 4.1-.9.6 2.2 5.3 3.1 5.3 1 0-1.5 6.2-.1 7.6 1.7.6.8 2.8 1.4 4.8 1.4 4.4 0 4.7 1.7.6 3.1-1.8.7-3 1.8-3 2.8 0 .9-.6 2.5-1.3 3.5-1.1 1.5-1.7 1.6-3.4.7-1.9-.9-2.4-.6-4.3 2.6-1.3 2.2-1.8 3.9-1.2 4.5 1.5 1.5 4.5.5 5.8-2 1.9-3.8 2.6-3.9 2.1-.2-1 6.1-1.3 7.1-2.3 7.8-.5.4-.9 1.6-.8 2.7 0 1.1-1.2 3.2-2.8 4.7-3.1 2.9-3.8 7.5-1.3 8.4 2.2.9 1.9 3.7-.2 3-1-.3-3.9-.8-6.4-1.1-4.1-.6-4.8-.4-6.3 1.6-1.8 2.6-1.6 3.1 1.8 3.4 1.4.2 3.9 1.3 5.5 2.4 1.6 1.2 3.4 2.1 4 2.1.6 0 1.1.4 1.1 1 0 .5.9 1 2 1s2 .4 2 .9 1 .7 2.2.3c1.4-.3 1.9-.2 1.4.6-.8 1.3-.6 1.3 3.4 1.6 1.4.1 3.5.7 4.7 1.4 1.2.6 3.3 1.2 4.7 1.2 1.4 0 2.6.5 2.6 1.1 0 .7 1 .9 2.5.5 1.4-.4 2.5-.2 2.5.4 0 .5.6 1 1.4 1 .8 0 1.6.6 1.9 1.4.3.7 2 1.6 3.9 1.9 8.2 1.4 9.9 2.1 10.9 3.9.8 1.4 1.8 1.9 3.6 1.5 1.5-.3 2.7.1 3 .9.2.7 1.7 1.3 3.1 1.3 1.5 0 4 .2 5.6.4 3.3.5 4.7-.1 12.3-5.6 2.9-2 5.8-3.7 6.5-3.7 2.2-.1 9.7-3.8 12-6.1 1.3-1.2 4.7-3.8 7.7-5.8 2.9-2 6-4 6.7-4.6 1.3-1 16 1 17.9 2.5.6.4 2.3 1 3.8 1.4 2.3.6 3.4.2 5.3-1.9 3.7-4 6.6-4.7 12.4-2.8 3.3 1 5 2.2 5 3.2 0 2.3 2.9 6.3 4.1 5.6.5-.4.9.1.9 1s.6 1.5 1.3 1.2c.6-.2 2.1 0 3.2.6s3.7 1.2 5.9 1.4c2.2.2 4.5.8 5.1 1.3.8.7 2.1.7 3.8.1 1.7-.7 2.8-.7 3.2-.1.4.6 1.1 1 1.7 1 .6 0 .3-.9-.7-2-1.9-2.1-5-2.6-6-1-1.3 2.2-2.5.8-2.5-2.9 0-4.7-2.4-7.8-4.6-6-.8.7-1.7 1-1.9.7-1-1 2.1-5.4 6.8-9.8 2.7-2.4 5.8-6.4 6.9-8.7 1.1-2.4 2.4-4 2.9-3.8.4.3 1.5-.7 2.3-2.2.8-1.5 2.8-3.8 4.5-5.1 1.7-1.2 3.1-3.1 3.1-4.1 0-1.1 1.8-3.8 4-6.1s4-4.9 4-5.9c0-.9 1.8-3.4 4-5.6 2.2-2.1 3.8-4.1 3.6-4.3-1-1 1.7-6 3.7-6.9 1.3-.6 3.8-3.2 5.7-5.8 7.1-9.6 11.1-13.5 14.1-13.5 1.5 0 3.1-.5 3.4-1.1.4-.6 1.3-.8 2-.5 1.9.7 2.6-.4 1.5-2.5-1.7-3.1-.1-5.2 3.3-4.5 3.9.8 3.8.7 2.8 4.4-.9 3-.8 3.1 1.1 2.1 1.1-.6 2.9-2.6 4-4.5 2-3.4 2.7-3.8 6.1-3.5 2.8.3 3.4-2.9.9-5-3-2.3-2.8-3.2 1.3-6.6 2-1.5 5.3-4.3 7.4-6.1 2.1-1.7 4.5-3.2 5.3-3.2 3.3 0 2.4 1.4-2.4 3.9-4.9 2.5-7 5.3-6.1 7.8.6 1.5 4 1.8 4.5.4.2-.5 3.2-1.1 6.8-1.4 7.4-.7 9-1 10.7-2 2.5-1.6 2.1 1.2-.4 3.2-2.4 1.7-2.5 2-.7 1.7 5.2-1 11.1-3.1 12.9-4.7 1.2-1 4.6-2 8.7-2.4 3.7-.4 7.5-1.3 8.4-2 1-.7 2.5-1 3.5-.8 1.3.4.1 2.1-5.4 7.5-3.9 3.8-8.5 7.7-10.2 8.5-1.6.9-4.1 2.4-5.4 3.5-2.2 1.7-2.6 1.7-3.4.3-.5-1-.4-2.1.4-3.1 2.5-3.1-.2-2.5-3.3.7-2.2 2.4-3.1 4.2-2.9 6 .2 2.1-.4 3-2.7 4.1-2.6 1.4-3 1.3-4-.3-.9-1.3-.8-1.9.4-2.3 1.3-.5 1.3-.9-.1-3.7-1.5-2.7-1.8-2.9-2.9-1.4-.8 1.2-1.9 1.5-3.9 1-1.5-.4-2.4-1.1-2.1-1.6.7-1.2-1.4-1.1-2.9.1-.7.5-3.7 3.2-6.7 5.9-3 2.8-5.9 5.1-6.3 5.1-1.3 0-3.7 2.7-3.7 4.2 0 .8-1.1 1.5-2.6 1.6-3.5.3-6 1.7-12.9 7.6-6.7 5.7-9.4 8.6-9.5 10.1 0 1.9 1.6 3.5 4 3.8 2.7.4 3.7 2.2 2.2 4-.5.7-.6 2.1-.1 3.2.4 1.1.8 3.2.8 4.6.1 1.4 1.2 3.6 2.5 4.8 1.3 1.3 2.7 3.9 3.1 5.8.3 2 1.3 4.2 2.1 5.1 1.1 1 1.3 2.6.9 5.6-.7 4.6.3 6.2 4.4 6.8 3.4.4 3.6 2.1.4 3.6-5.4 2.4-7.5 4.7-7.8 8.5-.2 2-.1 3.7.1 3.7.9 0 3.4-2.8 3.4-3.7 0-.5 1.9-1 4.2-1.2 2.3-.1 4.7-.6 5.3-1 .5-.5 1.8-.9 2.8-1 4-.3 4.7-.5 4.7-1.4 0-.5.6-.7 1.4-.4.7.3 2.6-.3 4.2-1.4 1.6-1 3.7-1.9 4.7-1.9.9 0 2.6-.9 3.6-1.9 1.3-1.3 2.7-1.8 4.2-1.4 1.8.5 2.1.3 1.6-1.2-.6-1.3-.3-1.6.9-1.1 1 .4 2.6-.1 3.7-1.1s1.7-1.3 1.4-.6c-1.2 2 .9 2.4 2.6.5 1.1-1.2 1.3-2.2.7-3.2-1.9-3-.9-3.3 1.9-.6 2.4 2.3 2.9 2.5 3.5 1.1.3-.9.6-2.6.6-3.8.1-2 .2-2 1.3-.5.7.9 2.5 2 3.8 2.3l2.5.6-.4-6.3c-.3-3.9-1-6.6-1.8-7.1-.8-.4-1.4-1.9-1.4-3.2 0-1.4-.4-2.5-.9-2.5s-1.1-.9-1.3-2.1c-.3-2.1-.3-2.1-2.5-.1-1.3 1-2 2.2-1.6 2.6.3.3-1 .6-3 .6-5.3 0-5.6 1.8-.8 6.3 2.3 2.1 4.1 4.1 3.9 4.3-.2.2-1.7 0-3.2-.4-1.9-.5-3.4-2-4.5-4.2-1.2-2.6-2.2-3.5-4.1-3.5-2.2 0-2.5.4-2.2 3 .2 1.6.8 3.5 1.4 4.2.8 1 .6 1.3-.6 1.3-.9 0-1.6-.8-1.6-2 0-1.1-.6-2-1.3-2-1.6 0-1.9-3-.4-4.8.7-.9.6-1.1-.7-.6-1.3.5-1.6-.1-1.6-4 0-4.3.2-4.7 2.3-4.4 1.2.2 2.3-.2 2.4-.7.1-.6-.6-.9-1.7-.7-1 .2-2.1-.2-2.5-.8-.4-.6.4-1 2-1 1.7 0 2.4-.4 1.9-1.2-.5-.7-.3-.8.6-.3.7.4 1.6.2 2-.5 1-1.7 3-.4 3 2.1 0 1 .5 1.9 1 1.9.6 0 1 .4 1 .9s-.7.8-1.6.7c-.9 0-1.9.5-2.1 1.1-.6 1.7 2.2 1.7 3.5 0 .6-.7.9-2.3.5-3.5-.4-1.6-.1-2.2 1.1-2.2.9 0 1.6.5 1.6 1.1 0 .6.7 1.7 1.5 2.5 1.3 1.4 1.5 1.2 1.5-1.6 0-2.4-.4-3-1.7-2.8-1.3.2-1.9-.5-2.1-2.3-.6-4.8 4.8-4.6 6.3.2.4 1 1.5 1.9 2.5 1.9 1.9 0 2.1-1.4.6-3.9-.5-.8-.3-1.6.5-2.2 1.1-.7 1.2-1.2.1-2.9-.7-1.1-1-3.1-.6-4.6.6-2.3.4-2.4-2.1-2-3.1.6-4.6 1.6-2.4 1.7.8 0 .4.4-.8.9-1.3.6-2.3 1.8-2.3 3 0 1.6-.6 2-3.6 2-3.1 0-3.5.3-2.9 2 .5 1.4.2 2-.9 2-.9 0-1.6.7-1.6 1.5 0 .9-.9 1.5-2.5 1.5-1.4 0-2.5.4-2.5 1 0 .5-.7 1-1.5 1s-1.5.4-1.5 1c0 .5-.7 1-1.5 1s-1.5-.6-1.5-1.3c0-1.6-4.2-5.7-5.8-5.7-.8 0-.9.7-.1 2.8 2.7 7 1.7 14.2-2.1 14.2-1.5 0-2-.7-2-2.5 0-1.4.3-2.5.8-2.5.4 0 1.2-1.1 1.8-2.4.9-1.9.7-2.7-.9-4.7-1.1-1.3-2.3-2.3-2.7-2.2-1.4.4-2.7-4.2-1.9-6.5.7-1.8 1.4-2.2 3-1.7 1.2.4 2.7.1 3.7-.7.9-.8 3.2-2.1 5-2.8 2.8-1.1 3.5-1.1 4.2 0 .6.9 1 .8 1.8-.6 1-1.8 1.1-1.8 2.9-.1 1.5 1.3 2.2 1.4 3.1.5.7-.7 1.2-.8 1.2-.3s.7-.1 1.6-1.3c.9-1.3 2.6-2.2 4.2-2.2 2.2 0 3-.7 3.9-3.1.9-2.4 1.6-2.9 3.2-2.4 1.4.4 2.7-.1 4.3-1.7 1.2-1.2 3-2.2 3.8-2 .9.1 3.6-1.6 6.1-3.9 4.4-4.2 9.6-6 17.2-5.9 1.5 0 4.5-.9 6.6-2 3.1-1.5 3.8-2.4 3.4-4-.6-2.4 2.3-2.8 4.1-.6.6.8 2.2 1.7 3.6 2 1.4.3 1.9.3 1.3 0-2-.9-1.5-3.1 1.2-5.2 3-2.4 3.2-3.8.5-4.5-2.5-.6-2.6-2.6-.2-3.3.9-.3 2.9-1.2 4.4-2 1.4-.8 3.5-1.4 4.5-1.4 1.1 0 2.8-.9 3.8-2 1.2-1.4 2.2-1.7 3-1 1.6 1.3 2.5.2 2.4-2.9 0-1.4-.3-2-.6-1.4-.2.7-4.8 3.4-10.1 5.9-5.3 2.6-9.8 5.1-10 5.5-.2.5-1.3.9-2.5.9-2 0-2 .1-.3 1.3s1.7 1.5.2 3c-.9.9-3.2 1.9-5.1 2.3-2.7.5-3.5 1.1-3.7 3.1l-.3 2.5-2.7-2.2c-3.4-2.6-3.6-4-.4-4 1.3 0 3.7-.7 5.2-1.6 2.6-1.4 2.7-1.5.4-.9-1.4.4-4.1.8-6 .9-2.9.1-3.6-.3-3.8-2.2-.2-1.5.2-2.2 1.3-2.2.9 0 2.4-1.8 3.5-4.5 1.1-2.5 2.4-4.5 3-4.5.6 0 2-1.5 3.1-3.4s3-3.7 4.2-4c2.2-.5 5.4-5.6 3.5-5.6-.5 0-.3-1.2.5-2.8.9-1.5 2.3-5 3.3-7.7.9-2.8 3-6.9 4.6-9.3 1.7-2.4 3.8-7.1 4.7-10.5 3-10.2 7-20.8 9.1-23.8 3.9-5.4 8.9-20.9 12-37.4.7-3.3 1.8-8.2 2.6-10.9.8-2.6 1.4-7.9 1.4-11.7 0-7.3 1.1-8.9 2.9-3.9 1.1 3.3 2.6 4.2 1.6 1-.4-1.2-.2-2 .5-2 .8 0 .7-.8-.4-2.5-2.9-4.4-1.5-9.8 3-11.5 2.1-.8 2.4-1.6 2.4-5.7 0-6.6 1.6-11.6 4.4-14 1.3-1.2 3.4-4.9 4.6-8.2 2.5-6.6 4.4-9.1 6.1-7.4.7.7.6 3.3-.5 8.3-1 4.9-1.2 8-.5 9.7.6 1.7.5 4-.6 7.6-.9 2.9-1.8 8.8-2.1 13.2-.6 10.1-3.5 27.6-4.4 27-.4-.3-1 .5-1.4 1.7-.3 1.4 0 2.6.9 3.1.8.4 1.5 2.1 1.5 3.7 0 2 .8 3.5 2.5 4.6 1.4.9 2.5 2.5 2.5 3.5s.5 2.1 1 2.4c.6.3 1 2.1 1 3.9 0 1.9.7 4 1.7 4.7 1.5 1.3 1.5 1.2.4-.9-1-1.8-1-3.4 0-7.5 1.1-5.1 2.3-21.7 1.9-28.7-.3-8 .5-25.8 1.4-29.9.5-2.2.4-4.2-.5-5.7-1-1.9-1-3.1.1-6.3.7-2.1 1.3-7.9 1.5-12.7.1-4.9.3-9.4.4-10.1.1-1.3 4.5-6.6 9.2-11.2 3-2.9 9.3-17.7 8.4-19.8-.3-.9-1.6-1.3-3.2-1.1-2.4.3-2.8-.1-3.1-2.5-.2-1.5.3-4.9 1.2-7.5 2.7-8.4 6.7-28.2 7.1-35 .2-3.7 1.1-10 1.9-14 1-4.3 1.6-13 1.7-21.5.1-7.8.4-14.6.6-15 .7-1.2 3.3 1.3 3.3 3.1 0 .8.7 2.4 1.6 3.3 1.4 1.6 1.5 2.5.5 6.5-.8 3.1-.8 5-.2 5.8.7.8.7 6.6.1 16.6-.5 8.5-.8 16.8-.7 18.5 0 1.6-.3 7-.7 11.8-.8 8.4-.7 8.9 1 8.5 1.3-.2 2.9-2.7 4.9-7.8 1.7-4.1 3.3-8 3.7-8.5.4-.6 2-4.5 3.7-8.7 2.5-6.3 2.9-8.6 2.4-12.6-.3-2.8 0-6.5.6-8.5.9-2.7.9-4 0-5.4-.9-1.5-.8-3.5.4-8.9 1.2-5.6 1.5-12.7 1.2-37.9-.2-17.1-.8-33.3-1.4-36-.6-2.8-1.6-7.5-2.2-10.5-.6-3-1.7-6.6-2.6-7.8-.8-1.3-2.1-4.6-2.9-7.3-.8-2.6-3-7.7-4.9-11.1-1.9-3.5-4.3-8.1-5.3-10.3-1-2.2-2.6-4.6-3.5-5.4-1-.7-1.7-2-1.7-2.7 0-.7-1.1-2.1-2.4-2.9-1.3-.9-3.1-3.4-4-5.5-1.9-4.9-10.8-14.9-15.3-17.3-1.8-.9-3.3-2.4-3.3-3.2 0-.8-.4-1.5-.9-1.5-1.2 0-.3 6.2 1 7.1.7.4.9 1.6.7 2.7-.3 1.1.3 3.5 1.3 5.2 1.1 1.7 1.7 3.5 1.4 4-.3.5.1 2.5.9 4.4.8 1.9 1.2 3.7.9 4-.3.2-.2 1 .3 1.7.4.7.9 5 1 9.6.2 5.1.9 9.6 2 11.8 1.3 2.8 1.4 4.3.6 7.5-.8 3.1-.7 4.2.5 5.1.9.8 1.3 2.7 1.2 5.6-.2 2.4.2 4.8.8 5.4.7.7.6 3-.4 7.7-2.6 12.2-5.5 22.6-7.2 26.7-1 2.2-2.1 4.8-2.4 5.7-.4 1-1.1 1.8-1.6 1.8-1.1 0-2.3-2.9-1.6-3.9.8-1.5 2.8-14.7 3.1-21.1.5-11.5 1.4-25.4 1.9-28.5 1.1-7.2 1.1-9.4.4-15.5-1-8.2-1.6-10.9-2.8-12.4-.6-.7-1.2-2.1-1.4-3.2-.2-1-.8-2.8-1.4-3.9-.6-1.1-.9-3.7-.6-5.9.2-2.1-.1-4.3-.6-5-.5-.6-.8-2.4-.7-3.9.2-1.5-.1-3-.6-3.3-.4-.3-.6-1-.3-1.5.4-.5.2-.9-.4-.9-.7 0-.7-.8-.2-2.3 1-2.7.4-4.7-1.5-4.7-.8 0-1.4-1-1.4-2.3 0-1.3-.3-1.7-.8-1-.5.9-2.6.8-8.7-.3-4.4-.9-9.6-1.5-11.5-1.4-4.6.1-16.2-2.1-17.5-3.5-1.1-1.1-8.2-15.3-9.8-19.5-.5-1.4-1.8-4.1-2.8-6.1-1.1-2-1.9-4.4-1.9-5.3 0-.9-.4-2.4-1-3.4-1.9-3.5-8-20-8-21.8-.1-1.1-2.3-6-5-10.9-2.7-5-5.7-10.4-6.5-12-2.1-4.1-2.9-5.4-10.9-17.5-7.3-11-11.2-15.3-21.2-23.6-3.3-2.7-9.6-8.6-14-13-4.3-4.3-9.9-9.6-12.4-11.7-2.5-2.2-7.3-6.6-10.7-9.9-9.4-8.9-18.2-14.4-35.8-22.4-2.2-.9-5.1-2.5-6.5-3.4-1.4-.9-4.7-2.3-7.5-3-2.7-.7-5.4-1.6-6-2-.5-.4-2.1-1-3.5-1.4-1.4-.4-4.8-1.3-7.7-2.1-4.4-1.2-16.7-6-27.5-10.8-1.6-.6-2.8-1.9-2.8-2.8 0-2.1-3.5-4.4-9.1-5.9-2.4-.7-7.8-2.2-11.9-3.5-12.5-3.9-25.3-6.5-30.5-6.3-2.8.1-21 .5-40.5.8zm16.3 7.7c-6.7.2-17.9.2-25 0-7-.1-1.5-.3 12.2-.3 13.8 0 19.5.2 12.8.3zm-48.6 1.9c-.3.3-1.2.4-1.9.1-.8-.3-.5-.6.6-.6 1.1-.1 1.7.2 1.3.5zm79.4.5c1.9.6 5.3 2 7.6 3 2.4 1 5 1.9 5.8 1.9 2 0 7.9 3 7.2 3.6-.3.3-1.1.7-1.9.8-4.5.9-6.8 2-6.8 3.2 0 .8-.9 1.4-1.9 1.4-1.3 0-2.3-1.1-3.1-3.5-.6-1.9-1.5-3.5-2-3.5-1.4 0-3.2 3-2.6 4.5.3.9 0 1.5-1 1.5s-1.3-.7-.8-2.5c.5-2.2.3-2.5-2.1-2.5-2.1 0-2.5-.3-1.7-1.3s.5-2-1.3-4.2c-1.4-1.5-2.5-3-2.5-3.2 0-.7 3.8-.3 7.1.8zm30.9 11.3c0 .2-.7.6-1.5 1-.8.3-1.5.1-1.5-.4 0-.6.7-1 1.5-1s1.5.2 1.5.4zm-11.2 4.1c-.3.3-.9-.2-1.2-1.2-.6-1.4-.5-1.5.5-.6.7.7 1 1.5.7 1.8zm30.2 3.9c0 .3-.4.8-1 1.1-.5.3-1 .1-1-.4 0-.6.5-1.1 1-1.1.6 0 1 .2 1 .4zm-172.2 27.1c.1.1-.2 1.5-.8 3-.7 1.9-.7 3.1 0 4 .7.8.4 1.7-.9 2.9-1.7 1.5-1.9 1.5-2.5.1-.4-1.3-1-1.4-2.6-.5-1.1.6-2 1.6-2 2.3 0 .8-1.6 2.1-3.6 3-2.7 1.3-3.5 2.2-3.1 3.7.3 1.3 0 1.8-1.4 1.7-1-.1-2-1.2-2.4-2.7-.3-1.4-.8-3.3-1.1-4.3-.4-1.2 0-1.7 1.5-1.7 1.6 0 2.1-.6 2.1-2.5 0-1.8-.5-2.5-2-2.5-1.2 0-2-.7-2-1.6 0-1.3.3-1.4 1.4-.5 1.4 1.2 4.6.5 4.6-1 0-.5.5-.9 1.1-.9.8 0 .8.4-.1 1.5s-.9 1.8.3 3.5c.7 1.1 1.7 1.7 2.1 1.3.3-.4 1.6-.8 2.8-1 2.3-.4 3.8-1.9 3.8-4.1 0-.6-.5-1.2-1-1.2-.7 0-.7-.7 0-2 .8-1.6 1.7-1.9 3.3-1.4 1.2.3 2.3.8 2.5.9zm96.2 7.1c0 .8-.5 1.2-1 .9-.6-.4-.8-1.1-.5-1.6.9-1.4 1.5-1.1 1.5.7zm-90 12.8c-.7.7-1 .4-1-.7 0-.9-.5-1.7-1.1-1.7-.5 0-.8-.4-.5-.8.2-.4.1-1.4-.4-2.1-.5-.8-.3-1.9.3-2.7.9-.9 1.5-.3 2.4 2.9.9 2.7 1 4.4.3 5.1zm254.1-4.8c.9 1.1.2.9-1.8-.6-1.8-1.3-3.3-2.5-3.3-2.7 0-.8 3.8 1.7 5.1 3.3zm-266.5 3.2c-1.8 1.6-1.8 1.6-.8-.4.6-1.2 1-2.4.8-2.6-.1-.3.2-.2.8.3.7.6.4 1.5-.8 2.7zm275.5 5.9c1.3 1.7 1.3 1.7-.6.3-1.1-.8-2.2-1.6-2.4-1.7-.2-.2 0-.3.6-.3s1.7.8 2.4 1.7zM452.5 199c.3.5.1 1-.4 1-.6 0-1.1-.5-1.1-1 0-.6.2-1 .4-1 .3 0 .8.4 1.1 1zm-83.9 22.5c.1 6.2-1.1 9.1-3.1 7.5-1-.8-1.1-1.8-.5-3.5.6-1.7.5-2.5-.5-2.9-2-.7.4-6.8 2.5-6.4 1.1.2 1.5 1.7 1.6 5.3zm142 15.1c-1 2.6.3 5.4 2.1 4.7 1.3-.5 1.4-.3.3 1.6-.8 1.7-1.5 2-2.4 1.2-.7-.6-1.6-.8-1.9-.5-.3.4-1.3-.1-2.2-1-1.5-1.5-1.5-1.6 0-1.6.9 0 1.8-1.2 2.2-3 .3-1.7 1-3 1.5-3 .6 0 .7.7.4 1.6zm8.4-.2c0 .3-.4.8-1 1.1-.5.3-1 .1-1-.4 0-.6.5-1.1 1-1.1.6 0 1 .2 1 .4zm56.5 17.3l-2.7 2.8.6-2.6c.3-1.5 0-3.4-.8-4.4-1.2-1.6-1.1-2.1.8-3.6 2-1.7 2.1-1.6 3.4 1.6 1.3 3.2 1.2 3.6-1.3 6.2zm-63.1-5.2c.3.9 0 1.5-.9 1.5-.8 0-1.5-.7-1.5-1.5s.4-1.5.9-1.5 1.1.7 1.5 1.5zm37.6 1c1 1.2 1 1.5-.4 1.5-.9 0-1.6.7-1.6 1.5 0 1.9-1.4 1.9-3 0-1.1-1.3-1-1.4.4-.9 1.2.4 1.6 0 1.6-1.5 0-2.5 1.2-2.7 3-.6zm10.5-.1c1.8 1.3 1.7 1.5-1.9 3-4.5 1.9-5.6 2-5.6.6 0-1.3 3.2-4.8 4.6-4.9.5-.1 1.9.5 2.9 1.3zm-44.7 5.1c-1.1 1.1-3.7-.7-3.1-2.2.5-1.3.8-1.3 2.1.1.9.9 1.3 1.8 1 2.1zM434 253c0 .5-.4 1-1 1-.5 0-1-.5-1-1 0-.6.5-1 1-1 .6 0 1 .4 1 1zm21.8 2.8c1.5-1.2 1.6-1.1.3.4-1.4 1.9-3.2 1.5-3-.5 0-.8.2-.8.6.1.4 1 .8 1 2.1 0zm-56.3 3.2c.3.5.1 1-.4 1-.6 0-1.1-.5-1.1-1 0-.6.2-1 .4-1 .3 0 .8.4 1.1 1zm174.5 1.1c0 .5.5.7 1 .4.6-.3 1 .4 1 1.7 0 1.3.5 2.9 1.1 3.5 1.6 1.6-3.4 4.8-5.8 3.8-1.5-.6-1.6-.8-.3-1.3 2.9-1 4.2-5.2 1.6-5.2-.8 0-1.7-.7-2-1.6-.3-.8-.2-1.2.4-.9.6.3 1 .1 1-.4 0-.6.5-1.1 1-1.1.6 0 1 .5 1 1.1zm14.7 9.5c-.3.3-1.2.4-1.9.1-.8-.3-.5-.6.6-.6 1.1-.1 1.7.2 1.3.5zm-10.7 4.9c.7.9 1 1.9.6 2.3-.4.4-1.2-.1-1.7-1.1-.6-.9-1.5-1.4-2.1-1.1-.7.4-.8.2-.4-.4 1-1.6 2.1-1.5 3.6.3zm6.2.7c-.7.7-1.2.8-1.2.2 0-1.4 1.2-2.6 1.9-1.9.2.3-.1 1.1-.7 1.7zm-209.8 13.1c1.1 1.1 1.1 1.6 0 3.2-1.2 1.6-1.4 1.6-1.4.3 0-.9-.3-2.3-.6-3.2-.7-1.9.3-2.1 2-.3zm-138.8 6.4c-.8 1.6-2.2 3.7-3.1 4.8-1.6 1.9-1.7 1.9-.3-.5.8-1.4 2-3.5 2.7-4.8.6-1.2 1.4-2.2 1.7-2.2.2 0-.2 1.2-1 2.7zm-5.8 9.3c-.7 1-1.4 1.7-1.7 1.5-.4-.4 1.8-3.5 2.5-3.5.2 0-.1.9-.8 2zm31.1-1c2.5-1.3 4.2.8 1.7 2.2-4.2 2.4-6.6 5.5-7.1 9.2-.5 4.7-.7 4.9-4.5 5.1-3.7.2-6.3-3.1-3.8-4.9 2-1.5 3-4.6 1.9-6-2.1-2.5 4.9-7.1 8.2-5.4 1 .5 2.4.5 3.6-.2zm383.8-.2c.8.5.8 1.2-.2 2.5-1.1 1.5-1.7 1.6-3.4.7-2.2-1.1-2.6-2.2-1.4-3.3.8-.9 3.5-.9 5 .1zm170.1 1.7c-.3.3-.9-.2-1.2-1.2-.6-1.4-.5-1.5.5-.6.7.7 1 1.5.7 1.8zm-591 10.2c-1.1 2.7-2.5 5.2-3 5.8-.9 1 1.5-5.2 3.3-8.8 1.9-3.5 1.7-1.5-.3 3zm597 5.8c-.3.3-.9-.2-1.2-1.2-.6-1.4-.5-1.5.5-.6.7.7 1 1.5.7 1.8zm-156.1 1.7c-.3.8-.6.5-.6-.6-.1-1.1.2-1.7.5-1.3.3.3.4 1.2.1 1.9zm-422.2 1.1c0 1.5-.6 2.4-1.7 2.4-2.1.2-2.4-1.7-.6-3.5 1.8-1.8 2.3-1.5 2.3 1.1zm-24.6 3.1c-2.2 2-2.2 2-.6 0 .9-1.1 1.7-2.7 1.8-3.5 0-1.1.2-1.1.6 0 .3.7-.5 2.3-1.8 3.5zm456.1-.8c0 1.6-1.6 1.9-2.5.4-.8-1.3.4-3.2 1.6-2.5.5.4.9 1.3.9 2.1zm86.3-1.7c.7.1 1.1 3.1.3 3.1-.2 0-1.5-.6-3-1.3-2.7-1.5-2.6-2.7.2-2.2.9.2 2 .4 2.5.4zm64.7 6.6c0 .5-.5.3-1-.5s-1-2-1-2.5c0-.6.5-.3 1 .5s1 1.9 1 2.5zm-609-.3c0 .7-.9 2.4-2.1 3.8l-2 2.5 1.8-3.7c1.9-4.1 2.3-4.5 2.3-2.6zm450 1.6c0 1-.7 1.9-1.5 1.9s-1.5-.4-1.5-.9c0-.4.5-.8 1.1-.8.5 0 .7-.5.4-1-.3-.6-.1-1 .4-1 .6 0 1.1.8 1.1 1.8zm101.3.8c-.7 1.8-2.7 1.3-3.1-.9-.2-1.1.2-1.4 1.7-1 1.2.3 1.7 1.1 1.4 1.9zm-557.2 7.7l-2.4 2.2 1.9-2.7c1-1.4 2.1-2.4 2.3-2.2.3.3-.6 1.5-1.8 2.7zM230 338c0 .5-.4 1-1 1-.5 0-1-.5-1-1 0-.6.5-1 1-1 .6 0 1 .4 1 1zm-23.1 12.7c-.7.8-2 1.8-3 2.3-1.6.9-1.6.8-.3-2 1-1.9 2-2.7 3-2.3 1.1.4 1.2.8.3 2zm2.1 4.7c0 .3-.4.8-1 1.1-.5.3-1 .1-1-.4 0-.6.5-1.1 1-1.1.6 0 1 .2 1 .4zm-5.2 1.8c1.8 1.8 1.4 3.1-.8 2.5-1.4-.3-2 0-2 1.1 0 .8-.3 1.3-.6.9-.8-.8.4-5.7 1.4-5.7.4 0 1.3.5 2 1.2zm9.5 5.4c-.3.8-.8 1.2-1.1 1-.3-.3-1.1-.1-1.7.4-.9.8-1.4.6-1.9-.5-.3-.9-1-1.3-1.6-1-.5.3-1 .2-1-.3 0-1.6 1.3-2.2 2.6-1.1.9.7 1.4.4 1.9-1.2.7-2.1.8-2.2 2.1-.5.7 1 1 2.4.7 3.2zm5.7-3.7c0 1.5-1.6 2.2-3.5 1.5-1.3-.5-1.4-.8-.3-1.5 1.8-1.2 3.8-1.1 3.8 0zm614.4 6c-.4.3-.9 0-1.1-.7-.3-.6-1.2-1.2-2.1-1.2-1.5-.1-1.4-.3.3-1.6 1.8-1.3 2-1.3 2.7.7.5 1.2.5 2.5.2 2.8zm-633.7-.4c-.4.8-.2 1.7.3 2 .5.3.6 2 .4 3.8-.5 2.9-.2 3.4 3.5 5.5 2.3 1.2 4.1 2.7 4.1 3.2 0 1.7-1.6 1.1-5.5-2-4.5-3.6-5.5-3.7-5.6-.8 0 1.3-.3 1.7-.6 1-.4-1.2-.1-3.2 2.4-12.5.2-.9.7-1.7 1-1.7.3 0 .3.7 0 1.5zm570.9 5c2.7-.2 3.1 0 2.6 1.7-.3 1.3-.7 1.6-1.2.8-.4-.6-1.7-1-3-.8-1.5.2-2.7-.5-3.8-2.2-1.6-2.4-1.6-2.5.3-.9 1.1.9 3.4 1.5 5.1 1.4zm64 1.3c1.2.8 2.6 5.2 1.6 5.2-.9-.1-6.2-4.7-6.2-5.5 0-.8 3.3-.6 4.6.3zM195 384.7c-1.1 1.7-1.1 1.7-.6 0 .3-1 .7-2.8.7-4 .2-2.2.2-2.2.6 0 .2 1.2-.1 3-.7 4zm585-3.6c0 .6-.4.7-1 .4-.5-.3-1-1.1-1-1.6 0-.6.5-.7 1-.4.6.3 1 1.1 1 1.6zm-586.7 11c-.6.6-.7-.3-.4-2.3.4-2.8.6-2.9.9-.9.2 1.3 0 2.7-.5 3.2zm566.7 2.4c1.5 2.9 1.1 3.6-2.1 3.7-1.3.1-2.9.6-3.6 1.1-.7.5-1.8.5-2.5.1-.7-.5-2.1-.7-3-.6-1 .2-1.8-.1-1.8-.6 0-1.8 2.9-3.4 4.9-2.7 1.4.4 2.1 0 2.6-1.5.9-2.8 3.9-2.5 5.5.5zm-568.8 2.2c-.3 1.6-.7 2.2-1 1.5-.4-1.3.4-4.2 1.1-4.2.2 0 .2 1.2-.1 2.7zm15.1.4c.5.3.2.9-.7 1.2-1.2.5-1.6 0-1.6-1.5 0-1.2.3-1.7.8-1.2.4.5 1.1 1.2 1.5 1.5zm493.7 2.1c0 1.8-.2 2-.9.8-.6-.8-.7-1.8-.5-2.2.9-1.4 1.4-.9 1.4 1.4zm9.8 1.6c.2 1.4-.2 2.2-1.1 2.2-1.7 0-3-2.7-2.1-4.1.9-1.6 2.9-.4 3.2 1.9zm35.2-.8c0 1.1-.8 2.4-1.7 2.7-1 .4-2.3 1.4-3 2.2-1.1 1.4-1.2 1.4-1.3-.3 0-1.8 3.8-6.5 5.3-6.6.4 0 .7.9.7 2zm54.5 8.9c-.3.6-1.1 1.1-1.6 1.1s-.4-.6.3-1.4c1.4-1.6 2.4-1.3 1.3.3zm40.6 4.4c-.6.6-1.1 2.4-1.1 3.9 0 1.8-.5 2.8-1.5 2.8-.9 0-1.2-.6-.9-1.5.4-.8 0-2.2-.7-3.1-1.1-1.4-1.1-1.8.4-2.9.9-.7 1.7-1.9 1.7-2.7 0-2.8 1.5-2.9 2.3-.3.6 1.8.5 3.1-.2 3.8zm-35.1-2.7c0 .8-.7 1.4-1.5 1.4-1.5 0-2.1-2.1-.9-3.3 1-.9 2.4.2 2.4 1.9zm-8 9.4c0 .5-.2 1-.4 1-.3 0-.8-.5-1.1-1-.3-.6-.1-1 .4-1 .6 0 1.1.4 1.1 1zm62.1 1.3c-.1 1.2-1.5.9-1.9-.4-.3-.6.1-1 .8-.8.6.3 1.1.8 1.1 1.2zm-164.6 20.9c3 1.4 2.8 3.2-.5 3.6-2.5.4-4.1-1.3-3.3-3.5.6-1.6.6-1.6 3.8-.1zM691 449c0 1.1-.4 2.1-.9 2.5-1.2.7-3.4-3.2-2.6-4.5.9-1.5 3.5 0 3.5 2zm207 1.6c0 1.4.8 3.6 1.7 5 1.5 2.4 1.5 2.9-.1 8.2-1 3.2-2 6.3-2.2 7-.2.8-.9 1.2-1.6 1-1.4-.5-2-20.5-.6-23.1 1.2-2.3 2.8-1.2 2.8 1.9zm-150.3 1.8c-.3.7-.2 1.7.3 2.2.5.5.3 1.9-.4 3.2l-1.2 2.3-1.4-2.6c-1.2-2.2-1.1-2.7.6-4.4 2.3-2.4 2.8-2.5 2.1-.7zm140.3 7.5c0 1.4-.4 3.1-.8 3.8-1.1 1.7-7.4 2.6-10.6 1.3-2.6-.9-2.7-1.2-1.4-2.8.8-.9 1.8-2.5 2.1-3.5.7-1.8 2.7-2.4 2.7-.7s2.9 1.1 4.2-.9c1.6-2.6 3.8-.9 3.8 2.8zm-146.5 11.7c.6 1 2.7 1.7 4.5 1.8 3.1.1 3.3.3 3.6 4.3.2 2.4 0 4.3-.4 4.3s-2.6-1.8-4.7-4-4.5-4-5.2-4c-1.4 0-1.8-2.2-.6-3.3 1-1 1.5-.9 2.8.9zm.6 11.3l2.3 1.8-2.2.7c-1.2.4-3.1 1.9-4.2 3.3-1.5 2-2.3 2.4-3.2 1.5-.7-.7-1.7-.8-2.9-.2-2 1.1-2.3.8-3.3-3.3-.4-1.8-.2-2.9.6-3.1.7-.2 2.7-.8 4.3-1.4 4.5-1.5 6-1.4 8.6.7zm76.9 10.5c0 .3-.4.8-1 1.1-.5.3-1 .1-1-.4 0-.6.5-1.1 1-1.1.6 0 1 .2 1 .4zm-74.8 9.2c-.5 2.6-3.6 4.5-5.9 3.7-2-.8-1.5-2.4 1.4-5.5 3.1-3.2 5.3-2.3 4.5 1.8zm-74.8 4.9c.8 2.3-.4 4.5-2.5 4.5-1.3 0-1.9-.7-1.9-2.3 0-3.7 3.2-5.3 4.4-2.2zm74.6 3.6c0 .4-.8.5-1.8.2-1.3-.3-2.2.4-3 2.2-1 2.2-1.5 2.5-2.7 1.5-.8-.6-1.9-.9-2.5-.5-.6.3-1-.3-1-1.4 0-1.3.7-2.1 1.8-2.1.9 0 2.5-.7 3.6-1.5 1.4-1.1 2.2-1.1 3.7-.2 1 .6 1.9 1.5 1.9 1.8zm-84 .9c0 .5-.4 1-1 1-.5 0-1-.5-1-1 0-.6.5-1 1-1 .6 0 1 .4 1 1zm88.9 1.9c1.8 1.1.8 3.6-1.9 5.1-2.6 1.4-3.7-.8-2-3.9 1.2-2.3 1.8-2.5 3.9-1.2zm-71.4 38.2c.4.6 1.3.8 2.1.5 2.5-.9 1.5.8-2.6 4.8-3.3 3.2-4.2 3.6-5.5 2.6-2.1-1.7-1.9-4 .4-4 1.2 0 2.1-.9 2.5-2.5.7-2.6 2-3.2 3.1-1.4zm-8.5 6.8c0 .6-.4 1.3-1 1.6-.5.3-1-.1-1-.9 0-.9.5-1.6 1-1.6.6 0 1 .4 1 .9zm-3 3.1c0 .5-.4 1-1 1-.5 0-1-.5-1-1 0-.6.5-1 1-1 .6 0 1 .4 1 1zm194.8 21.8c.3 1.8 0 2-2.5 1.3-3.9-1-4.4-4.1-.6-3.7 1.9.2 2.9.9 3.1 2.4zm-17.7 71c1 3.4.8 4.4-1 8-2.5 4.9-5.2 5.5-7.7 1.7-1.8-2.8-1.3-5.5 1.1-5.5 1.8 0 1.9-1.2.3-2.9-1.1-1-.8-1.6 1.2-3.1 3.6-2.8 4.8-2.5 6.1 1.8zM780 707.6c0 .8-.4 1.2-1 .9-.5-.3-1-1-1-1.6 0-.5.5-.9 1-.9.6 0 1 .7 1 1.6zm31 57.4c0 1.2-1.2 3.2-2.6 4.7-1.4 1.4-2.9 3.6-3.4 4.9-.6 1.5-1.8 2.4-3 2.4-1.1 0-2.3.7-2.6 1.5-.4.8-1.2 1.5-2 1.5-2.1 0-1.7-3.1.5-3.7 1-.2 2.4-1.6 3-2.9.6-1.3 2.2-2.9 3.6-3.4s2.5-1.7 2.5-2.8c0-1.9 1.8-4.2 3.2-4.2.4 0 .8.9.8 2zm-121.2 6.2c.1 4 1 11.2 1.7 12.9.8 2.1 11.4 1.4 13.1-.9 1-1.4 1.2-1.3 1.8.6 1 3 .5 3.5-5.8 6.7-4.8 2.4-5.9 2.6-8.3 1.6-3.2-1.3-5.8-5.2-8.9-13.4-2.3-6.1-2.3-6.1 2.6-8.4 3.5-1.6 3.7-1.6 3.8.9zm9.2 27.3c.7.9.8 1.5.2 1.5-.5 0-1.2-.7-1.6-1.5-.3-.8-.4-1.5-.2-1.5s.9.7 1.6 1.5zm19.8 2c1 2.2.9 2.5-.8 2.5-1.2 0-2 .7-2 1.6 0 .9.7 1.4 1.8 1.2 3.1-.6 4.2 5.2 2.2 11.1-1.7 5-1.7 5.1-3.5 3.1-.9-1-1.5-2.6-1.2-3.4.8-2-2.1-8.9-3.3-8.1-.5.3-2.1.3-3.5-.1-2-.5-2.4-1.1-1.9-2.6.4-1.3.2-1.8-.4-1.4-.6.3-1.7-.7-2.5-2.4-1.6-3.1-.5-4.3 1.2-1.3.8 1.6 1.2 1.6 4.7.1 4-1.7 6.4-2.6 7.5-2.7.3-.1 1.1 1 1.7 2.4zm-13.8 7.7c0 1.7-4.9 7.7-5 6.1 0-.6.5-1.3 1.2-1.5.8-.3.6-.7-.5-1.1-2.2-.8-3.7 4.1-1.6 5.3 7.7 4.5 10 8.4 5.3 8.8-1.5.1-3.3.7-4.1 1.3-1.8 1.6-6.3-.4-6.3-2.7 0-1.1-.5-1.4-1.6-1-2.7 1-3.5-.4-1.9-3.4.9-1.7 1.5-3.2 1.5-3.5-.1-.3 1.2-2.3 2.7-4.5 2-2.7 3.7-4 5.8-4.3 1.7-.2 3.3-.5 3.8-.5.4-.1.7.4.7 1zm-53.7 1.5c.3.5.1 1.7-.4 2.8-.4 1.1-.8 1.5-.8.8-.1-.6-.4-1.8-.7-2.7-.6-1.6 1.1-2.3 1.9-.9zm22.6 6.6c2.9 1.2 3.5 3.2.6 2.1-.7-.3-3-.1-5.1.5-2.5.7-4.2.7-4.8.1-.7-.7-.4-1 .6-1 .9 0 1.8-.7 2.2-1.5.7-1.8 2.4-1.9 6.5-.2zm118.6 4.7c.3.6-.1 1.3-1 1.6-1.9.8-3 0-2-1.5.8-1.4 2.2-1.4 3-.1zm-105 1c-.3.5-1.1 1-1.6 1-.6 0-.7-.5-.4-1 .3-.6 1.1-1 1.6-1 .6 0 .7.4.4 1zm-5.4 1c1.5 0 1.9.5 1.4 1.9-.3 1.1.1 2.5 1 3.4.9.9 1.1 1.8.5 2.2-.5.3-1.5-.3-2.2-1.5-.7-1.1-2.1-2-3.1-2-2.3 0-5.7-1.8-5.7-3 0-1 3-1.9 4.8-1.4.8.2 2.3.4 3.3.4zm-125.6 1.9c.7 1.2-1.2 2.4-2.5 1.6-1.1-.7-.4-2.5 1-2.5.5 0 1.1.4 1.5.9zM761 827c0 .5-.2 1-.4 1-.3 0-.8-.5-1.1-1-.3-.6-.1-1 .4-1 .6 0 1.1.4 1.1 1zm40 0c0 .5-.7 1-1.6 1-.8 0-1.2-.5-.9-1 .3-.6 1-1 1.6-1 .5 0 .9.4.9 1zm-127.7 3.4c2.2-.8 2.9 1 1.6 4-1.1 2.4-3.7 4.2-4.6 3.2-.3-.2.1-1.4.7-2.7 1-1.9 1-2.4-.4-3.4-.9-.7-1.6-1.6-1.6-2 0-.4.6-.2 1.4.4.7.6 2 .9 2.9.5zm27.9.8c-.7.7-1.2.8-1.2.2 0-1.4 1.2-2.6 1.9-1.9.2.3-.1 1.1-.7 1.7zm-52.2 5.3c1.1 1.3 1 1.4-.4.9-.9-.3-1.6-1-1.6-1.5 0-1.3.6-1.1 2 .6zm40.6.7c.4.7-1.9 3.5-5.9 7.2-3.6 3.4-6.8 7.2-7.2 8.6-.6 2.1-6.1 6.8-8.3 7.1-.4 0-3.2 2.9-6.2 6.5-5.5 6.3-10.4 9.9-12.2 8.8-.5-.3-.5-1.1.2-1.9.6-.7.7-2.1.3-3-.4-1.2-.3-1.6.4-1.2 1.6 1 4.3-.3 4.3-1.9 0-.8-1-1.4-2.6-1.4-3.8 0-2.4-2.2 1.6-2.7 1.8-.2 4.1-1 5-1.8.9-.8 2.4-1.5 3.3-1.5 1.9 0 2.3-3 .6-4.7-.7-.7-.8-1.9-.4-3 .5-1 .7-2.3.6-3-.2-1.5 2.6-3 7-3.8 1.9-.3 6.3-2.6 9.8-5.1 6.8-4.6 8.5-5.2 9.7-3.2zM736 841c0 .5-.7.7-1.5.4-.8-.4-1.5-.8-1.5-1 0-.2.7-.4 1.5-.4s1.5.4 1.5 1zm26.8.7c.2.8-.5 1.3-1.7 1.3s-2.1-.6-2.1-1.6c0-1.8 3.1-1.5 3.8.3zm-16.1 3.9c-.3.3-1.2.4-1.9.1-.8-.3-.5-.6.6-.6 1.1-.1 1.7.2 1.3.5zM490 854.1c0 2-3.3 5.9-4.9 5.9-1.8 0-8.1-7-8.1-8.9 0-1.1 1.3-1.5 3.6-1.2.6.1 1.7-.5 2.4-1.4 1.1-1.3 1.6-1.1 4.1 1.6 1.6 1.7 2.9 3.5 2.9 4zM648 867c0 1.3-.9 2.2-2.5 2.6-1.4.3-2.5 1.2-2.5 1.9 0 .8-.4 1.6-.8 1.9-.4.3-.7-.9-.6-2.7.3-4.7 6.4-8.2 6.4-3.7zm-199.3 1.6c-.3.3-1.2.4-1.9.1-.8-.3-.5-.6.6-.6 1.1-.1 1.7.2 1.3.5zm292.3 3.8c0 .3-.4.8-1 1.1-.5.3-1 .1-1-.4 0-.6.5-1.1 1-1.1.6 0 1 .2 1 .4zm-306 3c0 .3-.4.8-1 1.1-.5.3-1 .1-1-.4 0-.6.5-1.1 1-1.1.6 0 1 .2 1 .4zm4 1.5c0 2.1-1.3 4.1-2.6 4.1-1.7 0-1.7-.5-.2-3 1.3-2.1 2.8-2.7 2.8-1.1zm299.8 7.1c.3 3.1.2 3.2-1.3 2-1.1-.9-1.3-1.6-.6-1.8 1.7-.6 1.3-2.2-.5-2.2-.8 0-1.2-.5-.9-1.1 1.2-1.9 3-.3 3.3 3.1zm-92.8-.6c0 1.5-2.4 2.8-3.4 1.9-1.3-1.4-.5-3.3 1.4-3.3 1.1 0 2 .6 2 1.4zm95.4.1c.3.8.1 1.5-.4 1.5-.6 0-1-.7-1-1.5s.2-1.5.4-1.5.6.7 1 1.5zm12 8c.5 0 1.3 1.3 1.7 2.8.7 2.5.6 2.7-.9 1.6-2.3-1.7-4.2-4.1-4.2-5.2 0-.4.6-.5 1.3 0 .6.4 1.6.8 2.1.8zM551 894.4c.4 1.2.4 2.6-.2 3.3-.7.8-.4 2.2.9 4.3 1.8 3.1 1.8 3.2-.2 4.6-1.8 1.4-2.2 1.3-3.8-.7-1-1.2-1.5-2.9-1.2-3.8 1.3-3.1 1.5-6.1.5-6.1-1.4 0-1.3-2.3.2-3.8 1.4-1.4 2.7-.7 3.8 2.2zm194.8-2.2c-.7 1.9-3.8 2.2-3.8.4 0-1 .9-1.6 2.1-1.6 1.2 0 1.9.5 1.7 1.2zm-3.5 5.6c-.3 1.2-1.2 2.2-1.9 2.2-1.9 0-1.8-1 .4-3 2.1-2.1 2.3-2 1.5.8zm-104.6 4c1.4.9.5 6.4-1.1 5.9-1.3-.4-2.1-6.7-.9-6.7.4 0 1.3.4 2 .8zM550 913.5c-2.2 2.3-5.9 3.4-14 3.9-5.3.3-6.1 0-5.4-1.9.3-.8 1.8-1.4 3.2-1.5 7.7-.2 11.1-.7 12.3-1.6 3.9-3.1 7-2.2 3.9 1.1z"/><path d="M659.5 863.1c-1.1 1.7.1 2.1 1.5.4.8-.9.8-1.5.2-1.5-.6 0-1.4.5-1.7 1.1zM487.5 251c-.3.5-.1 1 .4 1 .6 0 1.1-.5 1.1-1 0-.6-.2-1-.4-1-.3 0-.8.4-1.1 1zM541.5 260.2c-.8.5-2 .6-2.5.3-.6-.3-2.3.9-4 2.6-2.9 3.2-3 3.3-4.5 1.4-1.5-2-1.6-1.9-4 1-3 3.5-2.9 5.7.3 6.1 1.8.3 2.2-.1 2.3-2.4l.1-2.7.7 2.5c.4 1.6 1.5 2.6 3.1 2.8 2.3.4 3.9-1.3 5-5.2.5-1.8.7-1.8 2.2-.2 1 .9 1.9 1.2 2.3.7.3-.6 1.2-.8 1.9-.5.8.3 1.7 0 2.1-.5.3-.6 1.1-.9 1.6-.6 1 .7 3.6-4.2 2.7-5-1-1-7.7-1.1-9.3-.3zM501.5 272.1c-.4.6-.4 1.3-.1 1.6.3.4-.2 1.5-1.1 2.5-1.5 1.6-1.5 2.1-.3 2.8 1.7 1.1 4.3-.8 3.6-2.6-.3-.7 0-1.4.6-1.6 1.3-.5.3-3.8-1.1-3.8-.5 0-1.3.5-1.6 1.1zM573.6 287.3c-1.1.8-1.5 1.9-1 3 .4 1.2 1 1.5 1.9.7.6-.5 1.5-.7 1.8-.3.4.3.7-.3.7-1.5 0-2.7-1.3-3.4-3.4-1.9zM564 291.9c0 1.6 1.2 4.1 1.9 4.1.4 0 .8-1.1.9-2.5.1-1.6-.3-2.5-1.3-2.5-.8 0-1.5.4-1.5.9zM590.6 294.5c-3.2 2.5-3 5.5.3 5.5 2.3 0 3.6-2.7 2.1-4.5-.8-.9-.7-1.4.2-1.8.7-.2 1.1-.7.8-1-.3-.3-1.8.5-3.4 1.8zM601.8 294.7c-.8 1-1.8 2.6-2.1 3.5-.4 1-1.3 1.8-2.1 1.8s-1.7.4-2 .9c-.3.5.5.8 1.9.7 1.4 0 2.7-.7 3-1.4.3-.7.9-1 1.5-.7.5.3 1 .2 1-.3s.9-1.2 2-1.5c2.6-.7 2.7-4.7.2-4.7-1.1 0-2.6.8-3.4 1.7zM561.7 297.7c-.9 1.5-.4 6.3.6 7 .6.4.8 0 .4-1-.4-1.2-.1-1.7 1.1-1.7 1.1 0 1.7-.9 1.8-2.5.1-1.8-.3-2.5-1.6-2.5-1.1 0-2.1.3-2.3.7zM624.7 301.6c-.9 1 .2 2.4 1.9 2.4.8 0 1.4-.7 1.4-1.5 0-1.5-2.1-2.1-3.3-.9zM551.3 304.2c.2.7 1 1.3 1.7 1.3s1.5-.6 1.8-1.3c.2-.7-.5-1.2-1.8-1.2s-2 .5-1.7 1.2zM558.6 307.3c.3 1 .9 1.5 1.2 1.2.3-.3 0-1.1-.7-1.8-1-.9-1.1-.8-.5.6zM260.4 329.5c-.7 1.6.2 3.5 1.7 3.5.5 0 .9-.7.9-1.5s.5-1.5 1-1.5c.6 0 1-.5 1-1 0-1.6-4-1.2-4.6.5zM256.6 329.9c-.4.7-.5 1.5-.2 1.8.9.9 1.9-.4 1.4-1.8-.4-1.1-.6-1.1-1.2 0zM327.5 330c-.3.5-.1 1 .4 1 .6 0 1.1-.5 1.1-1 0-.6-.2-1-.4-1-.3 0-.8.4-1.1 1zM256.7 334.1c-.9.6-1.7 1.7-1.7 2.4 0 .9-1 1.5-2.4 1.5-3 0-4.2 1.6-2.6 3.5.9 1.1.7 1.9-1.2 3.8-1.3 1.2-3.1 2.6-4.1 3-1.8.7-4 5.2-3.4 7 .5 1.7 4.5 1.8 5.1.1.4-1.1 1.3-1.4 3-1 1.9.5 2.6.1 3.1-1.5.4-1.2.2-2.4-.4-2.9-.8-.4-.5-1.4.9-3.2 1.1-1.5 2-3.9 2.1-5.5 0-1.5.3-2.3.5-1.7.6 1.6 4.1.6 4.8-1.3 1-2.4-1.6-5.3-3.7-4.2zM262.1 338.8c-1.3 2.5-.1 4 2.9 3.7 1.9-.1 2.4-.7 2.2-2.1-.7-3.5-3.6-4.4-5.1-1.6zM259.3 345.2c-1.4 2.4-1.1 3.3 1.2 3.3 1.3 0 2.1-.4 1.8-.8-.3-.4.1-1.4.7-2.2 1-1.2.9-1.5-.8-1.5-1.2 0-2.4.6-2.9 1.2z"/><path d="M253.5 348c.3.5.8 1 1.1 1 .2 0 .4-.5.4-1 0-.6-.5-1-1.1-1-.5 0-.7.4-.4 1zM229.2 354.7c.2 1.1 1.3 1.8 2.7 1.8 1.4 0 2.6.6 2.9 1.3.3 1 .7 1 1.8.1 2-1.6 1.7-2.9-.6-2.9-1.1 0-2-.5-2-1 0-.6-1.2-1-2.6-1-1.9 0-2.5.4-2.2 1.7zM669.8 392.7c1.4.6 1.6 4.9.2 5.8-2.9 1.8 2.9 5.9 7 5 3.8-.8 3.8-2.3-.2-7.3-2.3-2.9-4.1-4.1-5.8-4.1-1.4 0-1.9.3-1.2.6zM753.2 409.1c.2.6.8 1 1.3 1s1.1-.4 1.3-1c.2-.6-.4-1.1-1.3-1.1s-1.5.5-1.3 1.1zM771 416.3c0 .8.7 2.1 1.6 2.8 1.4 1.1 1.5 1 1.2-1.1-.3-2.6-2.8-4.1-2.8-1.7zM694.9 422.1c1.7 1.4 2.7 1.7 3.5.9 1.3-1.3-.9-3-3.9-3-1.9.1-1.8.2.4 2.1zM681.9 424.7c0 .5-.3 2.7-.5 5-.3 2.4-.1 4.3.3 4.3.8 0 3.3-6.9 3.3-9 0-1.1-3-1.4-3.1-.3zM779.4 432.2c3.9 3.5 3.8 4.5-.5 6.1-2.1.7-4.4 6.7-2.5 6.7.7 0 2.1-.6 3.2-1.4 1.3-1 2.3-1.1 3.1-.4.7.6 2 .7 2.9.4 1.3-.5 1.5-1.4.9-3.9-.3-1.7-.8-3.9-.9-4.7-.2-.8-1.1-1.4-2-1.2-.9.2-1.6-.2-1.6-.7 0-.6-1.5-1.8-3.2-2.6-3.3-1.6-3.3-1.6.6 1.7zm5.3 8c-.3.8-.6.5-.6-.6-.1-1.1.2-1.7.5-1.3.3.3.4 1.2.1 1.9zM815.5 434.1c-.4 1.1-.9 1.8-1.2 1.5-1-.9-4.3 1.4-4.3 3 0 1.1 1 1.4 4.5 1.1 2.5-.2 4.5 0 4.5.4 0 .3 2 .5 4.5.3 3.4-.3 4.7 0 5.1 1.1.5 1.2.9 1.3 2 .4.8-.6 1.4-.8 1.4-.3s.4.2.9-.5c1-1.5-.5-5.8-1.6-4.7-.4.3-1.2.1-2-.5-1-.9-1.7-.8-2.8.1-1.2 1-1.6.9-2.1-.4-.3-.9-1.5-1.6-2.5-1.6s-1.9-.5-1.9-1c0-1.9-3.9-1-4.5 1.1z"/><path d="M772.3 433.7c-.7.2-1.3.9-1.3 1.4 0 .9-3.6 4.9-4.5 4.9H765c-.5 0-.7.7-.4 1.5.4.8 1 1.2 1.5.9.5-.3.9 0 .9.7s.3.9.7.6c.3-.4 1.3-.1 2.1.6 1.2.9 1.6.9 1.9-.1.3-.6 1.1-1.2 1.8-1.2 1.9 0 2.3-2 1.1-5.3-.9-2.2-.8-3 .4-3.7 1.3-.9 1.3-1 0-.9-.8 0-2.1.3-2.7.6zM796.2 435.3c-1.2 1.4-.4 3.1 1.6 3.3 2.9.2 3.3.5 2.6 1.6-.5.8 0 .9 1.4.6 1.2-.4 2.2-.2 2.2.4 0 .5.5.6 1.2.2.7-.5.5-1.1-.7-2.1-1.7-1.2-1.4-1.8.8-1.4.4 0 .7-.4.7-.9 0-.6-1.1-1-2.4-1-1.4 0-2.8-.5-3.1-1-.9-1.4-3-1.2-4.3.3zM788.2 436.3c-1.1 1.2-1.1 2-.1 3.8 1 2 1.2 2 2.1.5.5-.9 1.3-1.4 1.9-1.1.5.4.9.1.9-.4 0-.6-.6-1.1-1.4-1.1-.8 0-1.6-.7-1.8-1.7-.3-1.5-.4-1.5-1.6 0zM538 443.2c-4.2 1.6-9 2-9 .6 0-.9-.3-.9-1.2 0-.7.7-2.5 1.2-4.1 1.2-2.1 0-4.1 1.2-7.4 4.5-2.4 2.5-5.2 4.5-6.2 4.5-1.7 0-8.5 4.4-12.1 7.7-.8.7-3.5 2.7-6 4.3-2.5 1.6-5.5 3.8-6.8 5-1.2 1.2-3 2-4 1.8-1-.1-3.1.7-4.6 2-1.6 1.2-3.5 2.2-4.3 2.2-.8 0-3.1.9-5.1 2-2 1-5.3 2.7-7.2 3.6-9 4.3-12.9 6.4-13.5 7.4-.3.5-1.8 1-3.3 1-1.5 0-6.1 1.6-10.2 3.6-4.1 2.1-8.2 4-9.1 4.5-.9.4-3.5 1.3-5.8 1.9-3.5.9-9.1 5-9.1 6.6 0 .3.6 1.2 1.4 1.9 1.5 1.5 11.4 2.6 12.2 1.3.7-1.1 7.7-.7 9.3.6 1.2.9 1.3.8.6-.3-.6-1.1-.4-1.3.8-.8 1 .3 1.7.2 1.7-.4 0-.6 1.5-.9 3.3-.8 4.7.3 15.6-1.1 16.3-2.2.3-.5 1-.7 1.5-.3.5.3 1.6 0 2.4-.6.8-.6 2.7-1 4.2-.9 1.5.2 3.4 0 4.1-.5.7-.4 1.6-.5 1.9-.2.3.3 1.2.1 2-.5.7-.7 3-1.4 5.1-1.6 5.6-.6 6.5-.8 9.7-2.2 1.7-.7 3.5-1.4 4-1.5.6-.1 1.5-.4 2-.8.6-.4 2.9-.9 5-1.2 5.4-.7 15-3.3 21-5.6 1.1-.4 3.4-1.3 5-1.8 1.7-.6 3.9-1.4 5-1.8 1.1-.4 2.4-.6 2.9-.5.5.1 1.9-.7 3.1-1.9 1.2-1.1 2.5-1.7 2.8-1.3.4.3.7.1.7-.6s.8-1.1 1.8-.9c1.1.2 2.6-.3 3.5-1.1 1-.7 1.7-1 1.7-.7 0 .4 1 0 2.2-.8 1.5-1.1 2.5-1.2 3.4-.5.8.7 1.8.2 3.3-1.6 1.1-1.5 2.4-2.4 2.8-2.2.5.3.9-.7.8-2.1 0-2.3.4-2.7 2.7-2.4 1.7.2 3.4-.4 4.7-1.7 1.2-1.2 2.5-2.1 3-2.1 1.6 0 4.8-4.7 4.6-6.8-.1-2.2-3.9-7.4-5.2-7-1.6.4-5.1-1.3-5.7-2.8-.3-.8-1-1.2-1.6-.9-.5.3-1 .1-1-.5s-.4-.9-.9-.6c-.5.3-1.1-.8-1.5-2.5-.5-2.8-.8-3-3.6-2.4-1.6.4-3.5.3-4.2-.2-1.9-1.1-7-1.2-9.8-.1zm-92.3 57.3c.5 1.7-4.1 3.3-6.8 2.3-2.4-.9-2.4-1-.4-2.4 2.2-1.6 6.6-1.5 7.2.1zM784.6 445.3c-1.3 1-1.6 2-1.1 3.6s1 1.9 1.9 1.2c.7-.6 1.5-.8 1.8-.5 1.2 1.1 1.6-2.5.5-4-1.1-1.4-1.5-1.5-3.1-.3zM794.5 449.1c-.3.3.1 1.3.8 2.2 1.7 2.2 6.7 1.1 6.7-1.4 0-1.6-.6-1.9-3.6-1.7-1.9.1-3.7.5-3.9.9zM790 452c-1.2.7-1.2 1.2-.2 2.2.9.9 1.5.9 2.4 0 .8-.8.9-1.5.2-2.2-.5-.5-1.5-.6-2.4 0zM784.6 457.2c-.9 2.8-.3 4.6 1.3 4 2.1-.7 3-2.2 2.4-3.9-.6-1.6-3.2-1.7-3.7-.1zM211.9 465.3c-2.9 2.4-4.1 5.3-4.4 10.7-.1 1.9-.6 4.3-1 5.2-.5 1.2-.2 2 .9 2.4.9.3 1.6 1.4 1.6 2.3.1.9.9 3.4 2 5.6 1.1 2.2 1.9 4.9 2 6 0 2.6 3.4 5.5 6.3 5.5 1.3 0 3.3 1.1 4.5 2.5 1.3 1.4 2.7 2.3 3.2 2 .6-.3 1-.2 1 .4 0 .6.6.8 1.4.5 1.6-.6 7.2 2 7.8 3.6.2.6 1.8 1.3 3.6 1.5 1.8.2 4.4 1.3 5.9 2.5 1.9 1.5 4 2 8.4 2 3.2 0 6 .4 6.3.9.3.5 1.5.7 2.6.4 1.1-.3 2.6 0 3.4.6 1 .8 1.6.9 2.1.1.3-.5 1.8-1 3.3-1 2.2 0 3.1-.7 4.5-4.1 1.5-3.4 1.5-4.3.4-5.9-.8-1.1-1.7-1.7-2-1.4-.3.4-1.4.3-2.4-.1s-2.8-.9-4-1.1c-3.9-.5-17-7.3-18.8-9.8-.7-.9-1.7-1.6-2.1-1.5-2.7.5-4.3-.4-4.6-2.4-.2-1.3-.9-2.1-1.9-1.9-.8.1-2.5-.7-3.7-1.8-1.2-1.1-2.6-2-3.2-2-.5 0-1-.8-1-1.8s-2-3.2-4.5-5c-2.5-1.7-4.5-3.8-4.5-4.6 0-.9-.9-2-2-2.6-1.1-.6-2-1.9-2-2.9 0-2.2-3.7-7.1-5.3-7.1-.7 0-2.4 1-3.8 2.3zM792.5 466.1c-.7 2.1.1 3.9 1.6 3.9.5 0 .9-.7.9-1.5 0-1.3.4-1.4 2-.5 1.7.9 1.8 1.4.8 3-.7 1-2 2.1-3 2.3-1.1.3-1.8 1.4-1.8 2.9 0 1.2-.5 3-1 3.8-.9 1.3-1 1.3-1 0 0-3.1-7.7-4.9-14.5-3.5-3.9.8-4.9 1.9-3.8 4 .8 1.4 1.2 1.5 2.4.3.8-.7 2-1.3 2.7-1.2.6.1 1.8.2 2.6.3.7 0 1.6.9 1.9 2 .3 1.4 1.2 1.8 3.6 1.5 1.9-.2 3.1.1 3.1.8 0 .9.3.9 1.1.1.6-.6 1.8-.9 2.5-.6.8.3 1.4-.1 1.4-.8 0-.8.9-.3 2 1.1 1.1 1.4 2 1.9 2 1.2 0-.6.5-1.2 1.1-1.2 1.8 0 3.7-3.1 3.1-5.3-.4-1.4-1.1-1.8-3.1-1.4l-2.6.5 2.5-2.1c1.6-1.5 2.6-3.5 2.8-5.9.3-3.3.1-3.6-1.7-3.1-1.2.3-2.1.1-2.1-.5 0-.5-1.1-1.2-2.5-1.4-1.8-.4-2.6 0-3 1.3zM808.5 471.5c-2.3 1.9-2.6 2.4-1.2 2.5.9 0 1.7.5 1.7 1.2 0 2 1.7-.4 2.4-3.5.3-1.5.5-2.7.4-2.7-.2 0-1.6 1.1-3.3 2.5zM660.4 486.4c-1 2.5-1 7.1 0 7.6.5.3 1-.4 1.2-1.4.2-1.1.5-3 .8-4.2.7-2.6-1.1-4.3-2-2zM523.8 509c-3.7.5-7.1 1.1-7.6 1.4-.4.3-4.4.9-8.8 1.5-4.4.5-10.2 1.9-12.9 3.1-2.7 1.1-8.1 2.6-12.1 3.2-4 .6-7.1 1.5-6.9 1.8.7 1.1 14.2-1.5 20.5-3.9 5.2-1.9 21.4-5 36-7 4.4-.6 5.2-.9 2.5-.8-2.2 0-7 .3-10.7.7zM547.8 510.7c-.2 1 .1 2.6.6 3.6.8 1.2.8 2 .1 2.5-.6.4-1.6 2-2.3 3.6-1 2.3-1 3 .1 4 2.5 2 4.6 5.8 4 7.2-.3.8-.9 1.2-1.3.9-.4-.3-1.3.1-1.9.9-.9 1.1-.7 1.5 1 1.9 1.8.5 2.1 1.2 1.7 4.1l-.4 3.4 2.4-2.6c2.4-2.5 2.5-2.5 3.9-.6 1.4 1.7 1.5 1 .9-7.5-.3-5.2-.6-11.6-.6-14.3 0-3.5-.6-5.4-2-6.8-2.5-2.5-5.7-2.6-6.2-.3z"/><path d="M529 512.5c-5.2.7-11.7 2.2-14.5 3.3-8.9 3.4-22.6 6.1-42 8.2-14.9 1.6-21.1 2.7-28.9 5.3-5.4 1.7-10 3.7-10.3 4.3-.2.6 1 3.3 2.7 6 1.9 3.1 3.4 7.4 4.1 11.3.5 3.5 1.4 7.2 1.9 8.2.6 1 1 3.4 1 5.4 0 4 3.4 15.2 6.2 20.5 1 1.9 1.8 4 1.8 4.6 0 .6 2.3 4 5 7.4 2.8 3.4 5 6.7 5 7.3 0 2.4 3.7 4.8 10.4 6.8 3.9 1.2 8.8 3 10.9 4 6.5 3.3 23 4.4 37.7 2.6 10.7-1.4 12.9-2 16.4-4.5 2.3-1.7 5.7-3.6 7.6-4.5 5.2-2.2 13-10.7 14-15.3 1.1-4.6 1.3-21.4.3-33.1-.4-6.1-1.1-8.8-2.5-10.3-1.1-1.1-2.3-1.8-2.7-1.5-.5.2-2.8-1.3-5.2-3.5-2.4-2.2-5-4-5.6-4-1.6 0-6.9-7.2-8.9-11.9-2.4-5.7-1.9-7.9 1.9-8.6 2.6-.5 3.3-1.1 3.3-2.8-.1-2.3 3.2-3.7 4.3-1.8.4.6 1.2.1 2-1.2 1.3-2 1.3-2.1-.2-.9-1.3 1.1-1.6 1-2.2-.7-.7-2.4-.6-2.4-13.5-.6zm-56.3 28.1l-.6 6.5 3-.6c3.6-.8 5.9.8 5.9 4.3 0 2.8-4.5 7.2-7.3 7.2-2.6 0-2.8 1.6-1.8 11.5 1.1 10.6 3 19 5.9 26.1l2.1 5.2-2.5-1.2c-1.3-.6-2.2-1.6-2-2.2.2-.6-.2-1.1-1-1.1-.7 0-1.1.4-.8.9 1.2 1.9-.9.5-4.4-3-2-2-5-4.3-6.5-4.9-1.5-.7-2.7-1.9-2.7-2.6 0-.8-1.2-2-2.7-2.7-1.6-.7-2.3-1.5-1.5-1.7 1.7-.7 1.5-3-.4-3.7-.9-.4-1.4-1.3-1-2.1.3-.9 0-1.5-.9-1.5-.7 0-1.9-1.7-2.6-3.8-.7-2-1.9-4.3-2.8-5-.9-.8-1-1.1-.3-.7 1.6.8 1.5-1.3-.2-4.4-.7-1.3-1.2-3.1-1.1-4 1.1-6.1 2.9-13.1 3.4-13.1.9 0 7.5-6 6.6-6-.5 0 0-.9 1-2 1.5-1.6 3.1-2 8.8-2h7l-.6 6.6zm22.2 23.9c-.8 7.3-.7 9.2.5 10 .7.6 1.6 2.4 2 4.2 1.1 5 6.1 11.7 10.2 13.6 4.1 2 13.5 2.4 17.4.8 1.4-.5 3.9-1.9 5.5-3 1.7-1.2 3.7-2.1 4.5-2.1 1.7 0 4 4.3 4 7.6 0 2.4-2.6 3.6-10.5 5-2.2.4-4.9 1.1-5.9 1.7-2.1 1-20.6 1.8-20.6.8 0-.3-3.5-.7-7.7-.9-4.3-.2-8.5-.8-9.4-1.3-.9-.4-2.6-2.9-3.8-5.4-2-4.2-2-4.8-.6-8 .8-2 3.9-5.9 6.9-8.8l5.5-5.2.3-8.5c.2-4.7.7-8.8 1.3-9.2.5-.4 1-.6 1.1-.5.1.1-.2 4.2-.7 9.2zm-3.6-5.8c-.7.2-1.9.2-2.5 0-.7-.3-.2-.5 1.2-.5s1.9.2 1.3.5zm-4.6 1.9c-.3.3-1.2.4-1.9.1-.8-.3-.5-.6.6-.6 1.1-.1 1.7.2 1.3.5zm-8.3 7.1c.8 6.5 1.4 16.4.9 13.3-.3-1.4-.9-2.9-1.4-3.5-.5-.5-.9-2.4-.9-4.1 0-1.8-.5-4.5-1-5.9-.6-1.5-.8-3.1-.4-3.6 1.2-2 2.2-.6 2.8 3.8zM206.7 524.6c-1.1 1.1 1.3 3.4 3.5 3.4 1.3 0 1.8-.6 1.6-1.8-.3-1.7-3.8-2.9-5.1-1.6zM219 534.1c0 .7 2 3.4 4.4 5.9l4.4 4.5 1.7 12.5c1 6.9 2.3 14.1 3 16.1.7 2 1.2 5.7 1 8.2-.2 4 .8 9 3.2 14.7.3.8.7 1.9.8 2.5.1.5.3 1.2.4 1.5.1.3.4 1.8.6 3.5.3 1.6 1.4 4.8 2.5 7 1.1 2.1 2 4.7 2 5.6 0 1 1 3 2.3 4.6 1.3 1.5 2.9 4.3 3.6 6 .8 1.8 1.7 3.3 2.1 3.3.5 0 1.7 1.9 2.7 4.1 1.5 3.4 2.8 4.6 7 6.5l5.3 2.3 5.5-2.4c4.3-2 5.9-3.3 7.6-6.7 1.2-2.3 3.2-5 4.5-6.1 3.4-2.6 3.1-6.2-1.4-15.5-2.1-4.3-4.4-10.6-5-13.8-.6-3.2-1.8-9.3-2.6-13.4-.9-4.9-2.6-9.6-4.9-13.5-2.2-3.7-4-8.5-4.7-12.5-2.1-11.8-4.4-14.2-16.1-16.6-4.1-.8-8.5-2.4-9.9-3.4-4.8-3.8-8.4-5.2-14.2-5.7-4.5-.5-5.8-.3-5.8.8zm24.8 16.7c.9.6 1 1.7.5 3.3-.5 1.3-.7 7-.5 12.6.3 9.9.4 10.2 2.5 10 1.7-.2 2.3.4 2.5 2.5.3 2.2-.2 3-2.2 4-2.1.9-2.6 1.8-2.6 4.8 0 7 4.1 20.5 9.8 32 3.1 6.3 5.8 11.8 6 12.2.2.5-.1.8-.7.8-.5 0-2.4-2-4.1-4.5-1.7-2.5-2.8-4.5-2.4-4.5.4 0 0-.8-.9-1.8-2.9-3.2-7.7-15.9-7.7-20.5 0-2.5-.7-6.1-1.5-8-.8-2-1.5-5.7-1.5-8.2 0-2.5-.7-5.9-1.5-7.4-1.1-2.3-1.2-3.5-.3-5.9.9-2.3.8-4.6-.2-10.1-1.8-9.5.2-14.2 4.8-11.3zm21.7 57.4c2.6 6.3 5.2 8.6 11 9.8 4.6.9 5.6 1.6 6.1 3.6.4 1.4.4 2.8 0 3.1-.3.4-.6-.5-.6-1.8 0-2.3-.1-2.2-1.4.6-.8 1.6-1.7 4.3-2 5.8-.4 1.5-1.1 2.5-1.6 2.2-.6-.3-1-.2-1 .3 0 1-1.9 1.4-7.5 1.4-4.5 0-6.7-2.1-10.8-10.6-4.1-8.2-4.1-8.7-.1-13.4 2-2.3 4.3-4.2 5.1-4.2.8 0 2 1.5 2.8 3.2zM757.5 535c.3.5.8 1 1.1 1 .2 0 .4-.5.4-1 0-.6-.5-1-1.1-1-.5 0-.7.4-.4 1zM419 536c0 .5.4 1 .9 1 .6 0 1.3-.5 1.6-1 .3-.6-.1-1-.9-1-.9 0-1.6.4-1.6 1z"/><path d="M256.6 541c6.6 2.1 7.1 2.8 10.4 12.3 1 3.2 2.7 7 3.8 8.5 2.7 4 4 7.4 4.8 12.8.4 2.7.9 4.3 1.1 3.7.9-2.4-1.9-12.3-4.4-16-1.4-2-3.7-7.1-5.2-11.3-2.3-6.5-3.1-7.7-6.1-9.2-2-1-5.1-2-7-2.3-2.1-.3-1.1.3 2.6 1.5zM764.7 539.7c-1.1 1-.8 4.1.4 4.9 1.7 1 3.2-1.2 2.4-3.5-.6-2.1-1.6-2.6-2.8-1.4zM277.1 581.7c-.1 3.1 4.5 16.9 7.4 22.3 3.4 6.3 3.1 4.1-.7-4.3-1.7-4-3.9-10.1-4.9-13.7-1-3.6-1.8-5.5-1.8-4.3zM739.3 595.6c-.7 1.8 1.9 4.4 4.4 4.4 1.7 0 2.9-2.8 1.7-4-2.1-1.9-5.4-2.1-6.1-.4zM721 601.4c0 .2.7.7 1.6 1 .8.3 1.2.2.9-.4-.6-1-2.5-1.4-2.5-.6zM698.7 614.1c-.3 1.3-.1 1.9.6 1.6 1.5-.5 2.2-3.7.9-3.7-.5 0-1.2.9-1.5 2.1zM674.6 615c.8 3.1 2 4.5 2.8 3.2.3-.5-.3-2.1-1.5-3.3l-2-2.4.7 2.5zM705 614c0 .5.5 1 1 1 .6 0 1-.5 1-1 0-.6-.4-1-1-1-.5 0-1 .4-1 1zM290.2 619.5c0 1.6.2 2.2.5 1.2.2-.9.2-2.3 0-3-.3-.6-.5.1-.5 1.8zM735.3 623.7c-1.6.6-1.7 3.3-.3 3.3 1.1 0 2.6-2.8 1.9-3.4-.2-.2-1-.1-1.6.1zM283.7 632.8c-1 1-1.7 2.2-1.7 2.7s.9-.1 2.1-1.4c1.2-1.2 1.9-2.4 1.7-2.7-.3-.2-1.2.4-2.1 1.4zM585.4 643.1c-.9 1.6 3.2 5 5.2 4.2.8-.3 1.4-1.5 1.2-2.7-.3-2.4-5.1-3.5-6.4-1.5zM860.4 676.8c-.1 1.5.1 2.1.3 1.4.4-1 .8-1 2.1 0 1.3 1.1 1.4 1 .4-.9-1.8-3.3-2.7-3.4-2.8-.5zM861 683c0 .5.5 1 1.1 1 .5 0 .7-.5.4-1-.3-.6-.8-1-1.1-1-.2 0-.4.4-.4 1zM842.6 735.7c-.4 1.6-.8 3.8-1 5-.3 1.2-1.6 4.3-3.1 6.9-2.5 4.5-2.5 4.7-.8 6.7 1.3 1.4 1.5 2.1.6 2.4-.8.3-1.3 2.1-1.3 4.2 0 7.2-1.3 19-2 18.6-.4-.3-.7.6-.7 2 0 1.3.6 2.6 1.3 2.9.8.3 1.4 1.3 1.4 2.1 0 .9.5 2.6 1.1 3.7 1.1 2 1.1 2 2.3-.3.7-1.3 1.9-2.3 2.8-2.1.8.1 2.1-.4 2.7-1.2 1.2-1.5 1.2-5.5-.5-28.6-.3-4.7-.5-12-.5-16.2.1-7.7-1.2-11.2-2.3-6.1zM529.9 804.1c-1.2 2.3.3 5.1 1.5 3 .4-.6 1.6-1.1 2.7-1.1 1.2 0 1.9-.7 1.9-2 0-2.8-4.5-2.7-6.1.1zM811.1 805.8c-1.5 2.8-1.4 5.2.3 5.2s2.8-3.8 1.7-5.8c-.7-1.3-1-1.2-2 .6zM838.5 805c-.3.5-.1 1 .4 1 .6 0 1.1-.5 1.1-1 0-.6-.2-1-.4-1-.3 0-.8.4-1.1 1zM829.5 811c-.3.5-.1 1 .4 1 .6 0 1.1-.5 1.1-1 0-.6-.2-1-.4-1-.3 0-.8.4-1.1 1zM716 834.7c-1.4 1-3.6 1.8-5 1.8-1.8.1-2.9 1-3.9 3.3-1.4 3.1-2.5 3.7-6.2 3.4-1-.1-1.9.8-2.1 2.3-.5 2.2-.3 2.3 2.6 1.8 4.7-.8 7.6-3 7.6-5.7 0-2.5 1.7-3.6 5.4-3.6 1.2 0 3.3-1.1 4.6-2.5 2.8-3 .8-3.5-3-.8zM788.6 837.5c-.4 1.5-1.6 2.7-3.1 3.1-1.4.3-2.5 1-2.5 1.4 0 .4-1.3 1.3-3 1.9-2 .6-3 1.7-3 3 0 2.8 2.1 3.7 3.6 1.6.8-1 2-1.5 2.9-1.1 2.2.8 1.4 3-1.1 3.4-1.3.2-2.5 1.6-3.3 3.7-.8 2.3-1.7 3.2-2.6 2.8-1.1-.4-1.5.2-1.4 2.3 0 1.6.4 3.7.8 4.7.6 1.6.9 1.6 1.8.5.5-.7 1.3-2.5 1.7-4.1.9-3.8 2.6-3.4 2.6.7 0 2.4-.7 3.9-2.2 5-2.2 1.6-2.4 2.6-1.8 14 .2 3.8-.1 6.1-.8 6.4-.8.2-.8.7-.1 1.5.5.7 1.6 2.1 2.3 3.1 1.4 2.1 1.5 2.1 6.6-2.6 4.3-3.9 5.1-5.5 6.6-12.4.7-3.7 1.7-7 2.1-7.3 2.4-1.8 6.1-13.9 8-26.7.7-4.4-1.3-5.3-4.4-2-2 2.1-3.2 2.6-6.4 2.4-2.1-.1-3.9-.6-3.9-1s.4-.8.9-.8 1.4-1.4 2-3c.8-2.4.7-3-.3-3-.8 0-1.7 1.1-2 2.5zM744.6 860.9c-.3.5.1 1.1.9 1.5.8.3 1.5.1 1.5-.4 0-1.3-1.8-2.2-2.4-1.1zM680.8 890.9c.3 2.4-.1 3.1-2.7 4.2-1.7.8-3.1 1.7-3.1 2.1 0 .4-1.6 1-3.5 1.4-3.7.7-4.2 1.3-2.3 3.2.9.9.9 1.5 0 2.4-1.7 1.7-1.5 3.8.3 3.8.8 0 1.5.2 1.5.5 0 .9-2.4 5-3.4 5.6-.5.4-.4 1.9.1 3.5l.9 2.8 2.6-3.5c2.5-3.1 2.6-3.7 1.5-7.6-.6-2.3-.7-4.6-.3-5 1.2-1.3 3.6 2.8 3.6 6.1v3.1l1.9-2.9c1.9-2.9 1.9-3 0-5.4-2-2.6-1.7-4.2.7-4.2.8 0 1.4-.6 1.4-1.3 0-2.2 3.7-5 5.6-4.3 1.3.5 1.5 1.4.9 4.2-.6 3.5-.5 3.6 1.7 3 1.3-.3 2.6-.6 2.9-.6 1.3 0 1.7-3.9.5-4.8-.6-.5-2.8-1.5-4.9-2.3-2.3-.8-3.6-1.8-3.3-2.6.7-1.8-.4-4.3-1.8-4.3-.8 0-1.1 1-.8 2.9zM808.5 897.5c-1.6 1.4-4.9 3.4-7.2 4.4-2.4 1.1-4.3 2.5-4.3 3 0 .6 1.4.2 3.2-.9 1.7-1 3.5-1.7 3.9-1.4.5.2 1.3-.5 1.9-1.6.6-1.2 2.1-2 3.5-2 1.8 0 2.5-.5 2.5-2 0-2.5.1-2.5-3.5.5zM779.7 898.6c-2 2.1-2.9 2.5-3.9 1.6-2.1-1.7-6.2 1.9-5.3 4.7.3 1.2 1.1 1.9 1.6 1.6.5-.4.9-.1.9.4 0 .6-.4 1.1-1 1.1s-1 2.8-1 6.3c0 5.7.3 6.5 2.4 7.6 1.3.8 3 1 3.6.6.8-.5 1.1-.3.8.6-.3.8-1.3 1.3-2.3 1.1-1-.2-1.4.1-1 .7 1 1.7 3 1.3 6.9-1.2 2.2-1.4 3.5-3 3.6-4.4 0-2.9 1.3-3.5 3.6-1.8 2.4 1.8 4.4 1.9 4.4.2 0-.8 1.1-2.4 2.5-3.7 2.7-2.5 2.5-4-.6-4-2.2 0-2.4-1.1-.7-2.8 1.9-1.9.3-1.4-2.1.7-1.3 1.2-1.8 2.2-1.2 2.6 1.5.8-1.6 3.8-5.6 5.6-2.4 1-3.1 1.9-2.7 3.1.4 1.4 0 1.8-1.8 1.8-2.8 0-4.8-1.7-4.8-4.1 0-.9-.7-1.9-1.5-2.3-2.1-.8-1.9-3.3.4-4.5 1-.6 2.1-2.6 2.4-4.6.3-2.1 1.7-4.4 3.4-5.9 1.5-1.3 2.5-2.7 2.2-3.1-.4-.3-1.8.6-3.2 2.1zM814.1 897.6c0 1.1.3 1.4.6.6.3-.7.2-1.6-.1-1.9-.3-.4-.6.2-.5 1.3zM763.9 906.2c-1.1 1.3-3 3.4-4.3 4.8-1.3 1.4-3.3 3.9-4.5 5.7-1.2 1.7-3 3.5-4.1 3.8-2.8.9-2.5 1.9 1 3.2 2.6 1 3 .9 3-.7 0-.9.7-2.3 1.5-3 1.3-1 1.7-.7 2.9 2 1.4 3.4 2.2 3 3.6-1.8l.8-2.7.7 3.2c1.3 5.7 3.6 3.2 3-3.2-.3-4.1-.4-4.2-1.6-2.2-.6.9-1.4 1.5-2 1.2-.5-.4.2-2.6 1.6-5.1 3.8-6.9 2.9-10-1.6-5.2zM712 920.8c0 1.1 6.1 3.3 7.2 2.6.5-.4-.3-1.2-1.7-2-3-1.5-5.5-1.8-5.5-.6zM723 921c0 .5.5 1 1 1 .6 0 1-.5 1-1 0-.6-.4-1-1-1-.5 0-1 .4-1 1zM702.5 924.9c-.3.6-2 1.1-3.6 1.1-2.3 0-3 .4-2.7 1.6.4 2 9.5 2.7 10.2.8.6-1.6-3-4.9-3.9-3.5zM769.6 925.5c-.3.8-.1 1.5.4 1.5 1.3 0 2.2-1.8 1.1-2.4-.5-.3-1.1.1-1.5.9zM684.8 928.7c-1 .3-1.8.8-1.8 1.3s-.3 1.5-.6 2.4c-.5 1.2.1 1.6 2.4 1.6 3.2 0 5-1.4 3.2-2.5-.6-.4-.8-1-.5-1.5.7-1.1-.6-1.7-2.7-1.3zM752 931.5c-1.1 1.3-.7 1.5 2.3 1.5 3.9 0 5.7-1.4 3.1-2.4-2.5-1-4.1-.7-5.4.9zM505.8 935.5c-.6.7-6.5 1.4-15.6 1.9-2.9.2-5.5.6-5.9.9-.3.4-.2.7.4.7.6 0 1.4 1.1 1.7 2.5.6 2.3.8 2.4 2.2 1 .8-.8 2.2-1.5 3-1.5 1.6 0 1.9 3.6.4 4.5-1.5.9-1.2 2.5.4 2.5.7 0 2.6 1 4.1 2.2 2.4 1.9 2.6 2.3 1.1 3.3-1.6 1.2-1.2 2.5 1 2.5.6 0 1.4-.9 1.7-2 .5-2 2.7-2.8 2.7-1 0 .5 1 1.8 2.2 3 1.6 1.5 1.8 2 .7 2-.8 0-2-.5-2.7-1.2-.8-.8-1.2-.8-1.2-.1 0 1.7 2.2 3 6.3 3.7 3.1.6 4.2.4 5.1-1 1.8-2.4 4.6-1.1 4.6 2.1 0 2.5 1.4 3.4 2.5 1.5.3-.6 2.4-1 4.6-1 4.1 0 4.9-.9 2.4-3-1.1-.9-1.2-1.6-.5-2.5.8-1 .5-1.3-1.3-1.1-1.5 0-2.3.6-2 1.3.6 1.6-3.3 1.7-7.6.2-2.7-1-3.4-.9-4.5.6-2 2.7-3.8-.4-3.3-5.7.5-5.7 1.3-6.9 4.1-6.2 1.4.3 3.1-.2 4.8-1.5 1.4-1.2 3.9-2.1 5.5-2.1 1.5 0 3.5-.5 4.3-1 1.2-.8 1.1-1-.7-1-1.2 0-2.8-.7-3.6-1.5-.8-.8-3.7-1.6-6.3-1.8-2.7-.3-6-.8-7.4-1.1-1.4-.4-2.8-.4-3.2-.1zm-2.8 12.1c0 1.7-2.6 1.9-3.6.3-.7-1.2 1.5-3.1 2.8-2.3.4.3.8 1.2.8 2zM484 945.9c0 .6.5 1.3 1.1 1.6.6.4.8 1.4.4 2.4-.5 1.2-.3 1.3.5.5 1.3-1.3.5-5.4-1.1-5.4-.5 0-.9.4-.9.9z"/><path d="M511.8 953.2c.5.5 1.6.8 2.3.6.8-.3.3-.7-1-1.1-1.7-.4-2.1-.3-1.3.5zM530.6 956.9c.8.8 5.4.7 5.4-.1 0-.5-1.3-.7-3-.6-1.6.1-2.7.4-2.4.7zM538.4 958.4c1.2.9 2.9 1.3 4.7.9 1.8-.3 2.9-.1 2.9.6 0 1.5 2.7 1.4 3.3-.2.3-.9-.8-1.3-4.1-1.5-2.5-.1-5.5-.4-6.6-.7-2-.6-2-.5-.2.9zM549.5 962c-.3.5-.1 1 .4 1 .6 0 1.1-.5 1.1-1 0-.6-.2-1-.4-1-.3 0-.8.4-1.1 1z"/></svg>